<svg xmlns="http://www.w3.org/2000/svg" viewBox="0 0 11.497 12.592" xmlns:v="https://vecta.io/nano"><g transform="translate(1.38 10.745)"><path fill="#191624" d="M-1.928-10.745h12.592V1.847H-1.928z"/><path d="M.319.007q.023 0 .057.002.034.002.07.006.036.004.063.008.027.004.037.009L.533.188H.521q0-.06-.044-.096Q.433.055.359.055.292.055.251.087.211.12.208.166.207.2.23.225.253.251.289.273l.22.143q.053.03.08.078.027.048.024.113Q.606.719.526.782.445.844.307.844.257.844.209.836.161.827.124.812.087.796.066.774.056.749.058.713.059.678.068.641.078.604.093.58h.01Q.099.639.125.689q.026.05.076.079.05.029.119.028Q.396.795.437.758.479.72.479.667.479.632.457.603.436.574.388.548L.186.414Q.125.38.098.326.07.272.077.208.082.148.112.103.142.058.194.032.246.007.319.007m.229.012L.545.043H.41V.018h.138m.665-.012q.138 0 .24.051.102.051.158.144.056.093.056.223 0 .129-.056.223-.056.094-.158.145-.102.051-.24.051-.138 0-.24-.051Q.871.742.816.649.761.556.761.426q0-.129.055-.223Q.871.109.973.058q.102-.051.24-.051m0 .789q.082 0 .141-.045.059-.045.091-.128.032-.083.032-.197 0-.114-.032-.197-.032-.083-.091-.128-.059-.045-.141-.045-.081 0-.14.045-.059.045-.091.128Q.949.312.949.426q0 .114.032.197.032.083.091.128.059.045.14.045m.82-.773v.506q0 .082.027.142.027.06.077.092.05.032.119.032.07 0 .121-.03.051-.03.079-.087.028-.056.028-.133V.023h.083v.514q0 .094-.04.163-.04.069-.114.106-.074.037-.179.037-.122 0-.206-.037Q1.944.77 1.902.701 1.86.633 1.86.538V.023h.173m-.169 0v.069H1.86q0-.025-.018-.041Q1.825.035 1.8.035q0 0-.009 0-.009 0-.009 0V.023h.083m.249 0v.012q0 0-.009 0-.009 0-.009 0-.025 0-.043.016-.018.016-.018.041h-.002V.023h.082m.375 0v.069h-.003q0-.025-.018-.041-.018-.016-.043-.016 0 0-.009 0-.009 0-.009 0V.023h.083m.159 0v.012q0 0-.009 0-.009 0-.009 0-.025 0-.043.016-.018.016-.018.041h-.002V.023h.082m.183-.017l.734.7.014.139-.734-.698-.014-.14m.006.741v.082H2.74V.817q0 0 .01 0 .01 0 .012 0 .029 0 .049-.021.021-.021.021-.049h.003m.161 0q0 .029.021.049.021.021.049.021.001 0 .012 0 .01 0 .01 0v.012h-.095V.747h.003M2.829.006l.166.176.001.647h-.165V.15q0-.064-.007-.104-.007-.04-.007-.04h.012m.744.017v.674q0 .043.003.077.003.034.007.052.003.018.003.018h-.01L3.41.658V.023h.163m.092 0v.012q0 0-.01 0-.01 0-.01 0-.029 0-.049.02-.021.02-.022.05H3.57V.023h.095m-.349 0h.095v.082H3.41q-.001-.03-.021-.05-.02-.02-.05-.02 0 0-.01 0-.01 0-.012 0V.023m.87 0q.136 0 .235.049.099.049.152.139.053.09.053.215 0 .124-.053.215-.053.09-.152.139-.099.049-.235.049h-.274L3.912.78q.033 0 .07 0 .036 0 .07 0 .034 0 .062 0 .028 0 .044 0 .016 0 .016 0 .083 0 .143-.043.06-.043.092-.123.032-.079.032-.189 0-.109-.032-.189-.032-.079-.092-.123-.06-.043-.143-.043 0 0-.017 0-.017 0-.045 0-.029 0-.064 0-.036 0-.074 0-.038 0-.072 0V.023h.286m-.156 0v.805h-.173V.023h.173m-.169.721v.084h-.092V.817q0 0 .007 0 .007 0 .007 0 .03 0 .051-.021.021-.021.022-.051h.003m0-.637h-.003q0-.03-.022-.051-.022-.021-.052-.021 0 0-.007 0-.007 0-.007 0L3.769.023h.092v.084m1.17-.1q.023 0 .057.002.034.002.07.006.036.004.063.008.027.004.037.009l-.014.155h-.012q0-.06-.044-.096-.044-.036-.118-.036-.067 0-.108.032-.041.032-.043.078-.001.035.022.06.023.025.059.047l.22.143q.053.03.08.078.027.048.024.113-.006.113-.086.175-.081.063-.219.063-.051 0-.098-.009-.048-.009-.085-.024Q4.8.796 4.778.774 4.769.749 4.77.713q.001-.036.011-.072.01-.037.025-.061h.01q-.005.059.021.109.026.05.076.079.05.029.119.028.076-.001.117-.039.041-.037.041-.09 0-.036-.021-.064Q5.149.574 5.1.548L4.899.414Q4.838.38 4.811.326 4.783.272 4.79.208q.005-.06.035-.105.03-.045.082-.071.052-.025.125-.025m.229.012l-.002.024h-.136V.018h.138m.987.474l.01.198q-.025.043-.068.077-.043.035-.106.056-.063.021-.15.021-.14-.001-.246-.051-.105-.05-.163-.143-.058-.093-.058-.225 0-.129.056-.223.056-.094.162-.144.105-.051.251-.051.092 0 .165.018.073.018.121.045l.002.197h-.01Q6.185.153 6.115.104q-.07-.049-.165-.049-.092 0-.158.045-.066.045-.101.127-.036.082-.036.196 0 .114.034.197.034.083.097.129.063.046.148.048.089 0 .15-.029.061-.029.098-.095.037-.067.056-.179h.009M6.761 0l.375.821H6.93L6.691.222 6.761 0m-.247.744q-.009.023-.003.039.006.016.02.025.014.009.028.009h.01v.012h-.246V.817q0 0 .005 0 .005 0 .005 0 .026 0 .055-.017.028-.017.047-.056h.081M6.761 0l.005.14-.285.685h-.084l.298-.674q.003-.007.012-.026.009-.019.018-.043.01-.024.018-.047Q6.75.013 6.75 0h.01m.121.555v.048h-.338V.555h.338m.017.19H7.1q.02.039.047.056.028.017.054.017 0 0 .005 0 .005 0 .005 0v.012h-.366V.817h.01q.023 0 .04-.019.017-.019.003-.053m.617-.721h.138q.099 0 .16.029.062.029.092.079.03.05.033.113.002.059-.02.107-.022.048-.06.081-.039.032-.087.047-.048.014-.101.007-.052-.007-.102-.04V.434q0 0 .014 0 .014 0 .037-.005.022-.005.047-.017.025-.013.047-.039.022-.026.033-.07.005-.015.006-.034.002-.019.001-.035-.001-.074-.04-.118-.039-.044-.109-.044h-.079q0 0-.003-.012-.003-.012-.006-.024-.003-.012-.003-.012m.015 0v.805h-.173V.023h.173m-.169.721v.084h-.092V.817q.001 0 .007 0 .006 0 .007 0 .03 0 .051-.021.021-.021.022-.051h.003m0-.637h-.003q0-.03-.022-.051-.022-.021-.052-.021-.001 0-.007 0-.006 0-.007 0L7.269.023h.092v.084m.166.637h.003q.001.03.022.051.021.021.051.021.001 0 .007 0 .006 0 .007 0v.012h-.092V.744m.792-.721v.805h-.173V.023h.173m.304.756l.028.049h-.335V.779h.307M8.58.407v.048h-.265V.407h.265m.056-.384v.049h-.321V.023h.321m.07.571l-.053.235h-.225l.041-.049q.058 0 .101-.022.044-.022.075-.064.031-.042.049-.098h.012M8.58.453v.11h-.012v-.01q0-.041-.028-.069-.028-.028-.07-.029V.453h.109m0-.154v.11h-.109V.407q.043-.001.07-.029.028-.028.028-.07V.299h.012m.056-.23v.135h-.012V.19q0-.053-.032-.085-.032-.032-.086-.033V.069h.129m0-.067v.033l-.14-.013q.025 0 .053-.003.028-.003.052-.008.024-.005.035-.009M8.15.744v.084h-.092V.817q0 0 .007 0 .007 0 .007 0 .03 0 .051-.021.021-.021.022-.051h.003m0-.637h-.003q-.001-.03-.022-.051-.021-.021-.051-.021 0 0-.007 0-.007 0-.007 0V.023h.092v.084" fill="url(#A)"/><g clip-path="url(#B)"><path d="M-.177-9.742h9.09V-.25h-9.09z" fill="url(#C)" mask="url(#D)"/></g></g><defs><linearGradient id="A" x1="0" y1="0" x2="1" y2="1"><stop stop-color="#51a8db" offset="0"/><stop stop-color="#3361e1" offset="1"/></linearGradient><clipPath id="B"><path d="M-.378-9.742h9.492V-.25H-.378z"/></clipPath><linearGradient id="C" x1="0" x2="1" y1="0" y2="1"><stop stop-color="#51a8db" offset="0"/><stop stop-color="#3361e1" offset="1"/></linearGradient><mask id="D"><g fill="#fff"><g fill-rule="nonzero"><path d="M8.331-4.268l-.018.068.018-.081.02-.105-.014.068-.007.035-.009.035-.035.143-.091.29-.025.073-.028.073-.029.073-.014.037-.016.036-.065.143-.071.14c-.095.178-.202.35-.32.513l-.086.114-.021.027-.023.026-.043.052c-.056.07-.115.13-.168.189l-.221.209-.075.068a.34.34 0 0 0-.035.033c.038-.021.059-.037.079-.053l.096-.08c.019-.015.037-.033.057-.051l.061-.057c.038-.034.079-.077.105-.103l.045-.044.023-.023.023-.024.091-.099.045-.053.045-.055.045-.056.044-.059.045-.061.023-.031.023-.032.087-.131.082-.139c.014-.023.027-.048.04-.072l.039-.074-.062.116-.068.113.096-.17.047-.09.023-.047.023-.049-.023.044c.108-.22.194-.45.254-.688l.04-.177c.007-.028.01-.057.015-.085l.013-.082c.01-.053.014-.104.019-.15l.007-.068c0-.011.002-.021.003-.031l.001-.03c.006-.154.002-.204-.007-.16-.005.023-.011.067-.019.134l-.006.054-.01.062-.023.148-.019.096-.013.066c-.001.008-.003.015-.005.023z"/><path d="M8.045-3.458c.107-.231.191-.473.251-.721l.013-.048-.013.014v.005a3.58 3.58 0 0 1-.315.929l-.027.056-.02.04-.009.018-.053.102c-.005.011.007-.003.03-.041l.044-.073L8-3.278l.014-.027.014-.027.015-.032.04-.088c.026-.053.049-.112.073-.173l.07-.193.017-.05.015-.051.029-.103c.01-.034.017-.068.025-.104l.023-.102.035-.199c.012-.064.015-.125.021-.182 0-.007.001-.014.002-.021s0-.014.001-.021c0-.014.001-.027.002-.04l.004-.074.003-.065a.42.42 0 0 0-.001-.055c-.002-.059-.008-.008-.013.005-.001-.004-.003.003-.005.021 0 .009-.002.02-.003.033l-.005.047-.012.127-.021.161-.077.445-.034.115.023-.091-.017.072-.013.05-.007.028-.009.029-.039.122-.01.031-.011.03-.023.058-.013.035-.031.076-.048.109.068-.117.022-.058.023-.058c-.003.008-.007.015-.011.023l.031-.083.027-.083.051-.168.083-.358.026-.161.018-.162c0-.011.002-.02.002-.028v-.02c-.003-.012-.006.016-.014.063l-.021.142.01-.064a3.85 3.85 0 0 1-.269.969l-.032.073-.024.057c-.006.024.004.004.027-.045z"/><path d="M8.351-4.278c.009-.053.012-.104.018-.182v-.032l-.01.104-.008.084c-.003.018-.001.027 0 .025zm.019-.431l.003-.032-.003.026zm-.531-2.077c-.012-.02-.013-.019-.001.003l.039.073c.011.021.01.017.001-.003l-.019-.039c-.007-.014-.015-.026-.02-.035z"/></g><g fill-rule="evenodd"><path d="M8.415-4.942a.42.42 0 0 1 .013.134c-.002-.052-.013-.074-.013-.134zm-.163.424a.57.57 0 0 1-.007.083.21.21 0 0 1 .007-.083zm0 .149c.008.003-.004.045-.007.074-.01-.003.005-.053.007-.074zm-.024.063c.008-.023-.007.054-.006.064h-.008a.36.36 0 0 0-.009.065c-.002.021-.005.042-.011.063-.002-.013-.002-.026 0-.039l.009-.05.025-.104z"/><path d="M8.241-4.286c.009 0 .002.035-.003.065a.5.5 0 0 1 .003-.065z"/><path d="M8.23-4.241a.38.38 0 0 1-.004.059c-.003.021-.009.041-.017.06 0-.015.003-.031.008-.045a.46.46 0 0 0 .013-.074zm.429.053c.005.004-.007.049.003.042l-.008.03a.2.2 0 0 1 .005-.073zm-.04.131a.13.13 0 0 1-.006.062.13.13 0 0 1 .006-.062zm.294.076a.81.81 0 0 1-.024.119c-.002-.019.019-.083.024-.119z"/><path d="M8.167-4.016a.15.15 0 0 1-.011.059l-.02.047a.17.17 0 0 1 .013-.045.43.43 0 0 0 .019-.061zm.385.251c.008-.023.015-.046.019-.07.008-.004-.015.073 0 .042a.48.48 0 0 1-.02.081c-.002-.015.008-.049.001-.053zm.272.116a.43.43 0 0 1-.017.069.25.25 0 0 1-.033.079l.023-.062.013-.039.014-.046zm-.374.221c-.004.024-.012.047-.024.068-.004-.005.018-.048.024-.068zm-.454-.116c.011.007-.018.05-.023.051-.002-.019.015-.021.023-.051zm-.236.489c.017-.023-.023.048-.027.048-.003-.016.013-.016.027-.048zm.023.012c.002.003-.013.025-.009.027-.012.016-.022.032-.032.05s-.023.037-.021.028l.062-.104z"/><path d="M7.48-2.653c-.012.022-.026.043-.043.062l-.032.036c-.005.007-.013.012-.021.015a.66.66 0 0 0 .045-.051l.05-.062zm.184.458c.098-.108.017-.035 0 0zm-.515-.111c-.01.029-.051.061-.095.099.012-.029.069-.066.095-.099zm.144.411c-.004.013-.013.025-.025.033-.023.011-.004-.01-.013-.013.038-.034.009.005.038-.02zm-.519.404c0 .007-.041.028-.058.041.001-.013.032-.024.058-.041zm-.252-.324c.001.004-.051.045-.054.035a.31.31 0 0 0 .054-.035zm.287.459c.01.004-.068.047-.065.035.031-.021.037-.017.065-.035zm-.37-.402c-.046.035-.095.067-.146.094a.83.83 0 0 1 .146-.094zm-.176.045c-.012.014-.039.01-.075.033.022-.016.048-.028.075-.033zm-.092.039c0 .006-.029.017-.028.023.001-.009.015-.015.028-.023z"/><path d="M6.198-1.609a.21.21 0 0 0-.06.024l-.035.018-.039.018c.022-.015.044-.029.068-.04s.043-.02.066-.02zm-.32-.484c.011.005-.021.015-.027.015-.065.03.021-.017.027-.015zm.424.861c.028-.011-.005.015-.033.024-.02-.002.039-.019.033-.024zm-.305-.181c.003.012-.054.034-.084.042.013-.017.061-.023.084-.042zm-.054-.048c-.004.004-.023.013-.006.008-.006.009-.039.013-.038.007.011-.007.022-.012.033-.016zm-.108.147c-.027.013-.04.017-.054.019.03-.015.027-.006.054-.019zm-.029.285c.011-.001-.006.005-.03.013l-.066.021a.64.64 0 0 1 .095-.034zm-.155-.07l-.038.011c-.011-.007.042-.022.038-.011z"/><path d="M5.462-1.042c-.014.018-.067.012-.106.025a.48.48 0 0 1 .106-.025zm-.288-.381c-.025.005-.028 0-.053.004 0-.008.055-.014.053-.004zm-.233.373c-.012.006-.025.01-.039.011a.51.51 0 0 1-.047.003c.013-.003.026-.006.04-.007a.38.38 0 0 0 .045-.007zm-.144.013c-.016.006-.033.008-.05.008s-.026.002-.039.003l-.035.003a.87.87 0 0 1 .124-.014zm-.229-.347c-.012.006-.064.004-.053-.006.029-.002.014.011.053.006z"/><path d="M4.555-1.046c-.031.01-.063.013-.095.008-.008-.007.065-.003.028-.01.012-.006.043.003.067.001zm-.172.01c-.02-.006.004-.005.009-.01.017.003.051.001.048.009-.009-.002-.019-.003-.029-.003s-.019.005-.029.005z"/><path d="M4.393-1.033c-.027.007-.06-.01-.096-.002.032-.009.065-.008.096.002zm-.198.42c.005.011-.052 0-.053-.004.009-.007.027.005.053.004zm-.21-.231c.007.011-.066-.002-.05-.009a.21.21 0 0 0 .05.009zm-.214.09c-.025.001-.049-.002-.072-.01a.35.35 0 0 1 .072.01zm-.25.408a.14.14 0 0 1-.045-.005L3.5-.356c-.017.001-.012.004.021.01zm-.291-.808l-.095-.029c-.032-.01-.062-.025-.094-.037l-.096-.04-.098-.045a.56.56 0 0 1 .098.033l.095.042.094.045a.88.88 0 0 0 .096.032z"/><path d="M3.116-.723c0 .009-.06-.008-.052-.017zm-.102.085a.24.24 0 0 1-.074-.025c.018-.003.046.017.074.025zm-.095-.151a.31.31 0 0 1-.073-.023c-.005-.012.049.016.073.023z"/><path d="M2.777-.811c.023.012.005.007-.016 0s-.045-.02-.034-.022c.026.008.039.026.051.022zm-.071-.032c.002.008-.091-.03-.08-.036.026.014.053.026.08.036zm.135-.474c-.001.012-.063-.025-.068-.016-.02-.012-.04-.023-.04-.032a.4.4 0 0 1 .056.025c.018.01.034.016.052.023z"/><path d="M2.662-1.273c.03.024-.044-.017-.065-.027l.012-.003c.021.009.046.032.053.03zm-.155-.096a.13.13 0 0 1-.066-.025c.025.011.038.011.066.025zm-.165.196c-.02-.007-.04-.016-.058-.027.001-.009.045.015.058.027zm-.082.118c-.004 0-.02-.009-.022-.006a.17.17 0 0 0-.044-.034.2.2 0 0 1 .066.041zm-.145.163c.002.007-.01 0-.026-.008l-.025-.015-.021-.013c.002-.003.013.003.027.011zm.329-1.279a.12.12 0 0 1-.048-.02c-.002-.006.03.015.011-.001.014.005.026.012.037.022zm-.575.806c-.032-.018-.061-.041-.084-.07l.038.034.022.018zm.486-.943l-.092-.072a.13.13 0 0 1 .045.028c.018.014.034.032.047.044zm-.096.044a.42.42 0 0 1-.081-.063.48.48 0 0 1 .081.063zm-.006-.131c-.006.015-.04-.038-.037-.021-.005.005-.021-.018-.017-.019-.086-.078-.023-.03.008.004.03.017.026.022.046.036zm-.737.9c-.021-.008-.04-.022-.054-.04a.33.33 0 0 1 .054.04z"/><path d="M1.543-1.62a.31.31 0 0 0-.082-.071c.035.021.057.04.08.057zm-.036.01l-.047-.037-.047-.035a.45.45 0 0 1-.082-.076c.005-.003.035.032.05.044.004-.007-.03-.035-.052-.057l.089.074.051.047.039.04zm.617-.904c-.006.004-.029-.02-.045-.037.007.003.014.007.019.013s.017.015.027.024zm-.051-.054c-.003.009-.018-.007-.034-.024.007-.001.016.002.034.024z"/><path d="M2.029-2.607c-.004.005-.021-.018-.038-.038s-.03-.039-.031-.024c-.005-.012-.006-.025.006-.017l.063.079zm-.817.718l-.005.006-.028-.037a.69.69 0 0 0-.042-.049c.002-.007.039.048.035.027.011.02.025.037.042.052z"/><path d="M1.507-2.212c-.023-.026-.051-.057-.047-.065.023.027.053.059.047.065zm-.363.234c-.015-.008-.019-.014-.016 0-.011-.021-.034-.04-.04-.038-.024-.025.006-.012-.022-.041l.078.078zm-.06.014c-.01-.002-.055-.05-.042-.052a.37.37 0 0 0 .042.052z"/><path d="M1.063-2.067c-.024-.017-.044-.039-.059-.065.009.008.018.016.026.025z"/><path d="M1.056-2.091c-.015-.004-.029-.025-.043-.05.005-.002.03.036.043.05zm-.124-.051a.59.59 0 0 1-.071-.086.98.98 0 0 1 .071.086zm.833-.746c-.005.003-.017-.013-.029-.03.024.01.017.014.029.03zm-.82.632c.001.019-.084-.093-.084-.101 0-.002.017.021.037.045l.028.035.019.021zm-.234.037l-.02-.028c-.005-.011.004-.017.023.01zm.935-.758c-.009-.006-.014.001-.028-.022.006-.001.013-.003.028.022zm-.062-.092c-.006.005-.022-.021-.034-.038.006-.005.022.021.034.038zm-.865.544c-.015-.009-.033-.037-.024-.037zm-.072-.151c.002-.006.008.004.015.016.025.015.008.028-.015-.016zm-.102.084c-.038-.052-.036-.074-.076-.126.01-.009.072.108.076.126zm.073-.144c-.01-.003-.029-.031-.044-.05.005.005.021.017.001-.014 0-.007.027.034.012.005.027.027.002.027.031.058z"/><path d="M.592-2.718c-.017-.017-.031-.037-.04-.059l-.035-.076c.014.021.027.044.037.068a.34.34 0 0 0 .038.067zm.868-.595c-.016-.017-.021-.053-.041-.084.017.026.031.054.041.084zm-1.128.309c-.015-.019-.041-.051-.035-.033C.283-3.06.271-3.085.261-3.11l-.017-.039-.019-.042.056.104.05.083zm.059-.133a.37.37 0 0 1-.03-.056c-.007-.019-.01-.032.003-.017-.004.018.021.044.027.073zM.22-3.163c0 .02-.035-.066-.021-.053zm.118-.084c.003.018-.034-.08-.045-.1.016.008.028.056.045.1z"/><path d="M.341-3.26a.72.72 0 0 1-.057-.191c.02.043.031.119.057.191zm-.116.044c-.017-.003-.016-.065-.03-.061.018.025.021.034.03.061zm.068-.082c-.004.004-.016-.036-.023-.051.02.019.015.026.023.051zm-.042-.055c-.007-.006-.013-.014-.017-.023s-.007-.018-.007-.027a.21.21 0 0 1 .024.05zm-.02-.112c-.022-.039-.039-.081-.048-.124.011.017.014.039.017.017a.51.51 0 0 0 .031.107zm.457-.418c-.01-.004-.013-.02-.013-.037.01 0 .008.043.013.037zm-.545.119c-.002.006-.007-.003-.013-.02l-.01-.029a.35.35 0 0 1-.008-.035c-.01-.048-.017-.094-.004-.078.01.054.015.121.036.163zm.526-.306C.66-4.084.655-4.099.653-4.116l.008-.002c.005.015.007.031.008.047zm-.061-.094c-.011-.034-.019-.069-.024-.104.012.034.02.069.024.104zm.516-.216c-.001-.017-.001-.034 0-.051.004.007.007.05 0 .051zm-.513.026a.11.11 0 0 1-.022-.064c.011.02.018.042.022.064zm-.607.008a.4.4 0 0 1-.013-.077c.009.025.014.051.013.077zm.572-.139C.57-4.487.569-4.521.563-4.522l.002-.02c.008.018.012.038.011.057zm.515-.239h-.008l-.001-.059a.29.29 0 0 1 .009.059zm.091-.043c-.007-.021-.008-.043-.005-.065.006.006.002.046.005.065zm-.644-.124c-.005 0-.007-.025-.007-.052s.002-.043.005-.065a.4.4 0 0 1 0 .053.26.26 0 0 0 .003.064zm.641-.073c-.001-.023-.01-.038-.002-.049.007.016.007.033.002.049zm.012-.065h-.008c.003-.012.003-.037.011-.033 0 .015-.003.017-.003.033zm-1.236-.118a.11.11 0 0 1-.004-.067.25.25 0 0 1 .004.067z"/><path d="M1.085-5.179c-.008.032-.002-.032-.009-.026.002-.015.006-.019.012-.017.002.022-.01.035-.003.042zm.098-.023c-.011-.002.003-.029-.002-.049h.008c0 .027-.006.025-.006.049zm-.025-.041c-.007.024.005-.059-.008-.042.005-.02.008-.019.01-.008a.21.21 0 0 1-.002.05zm.05-.088c0-.022-.002-.021-.003-.016-.003-.003 0-.021.001-.033.009-.004.005.024.001.049zm-.03-.117h-.01a.29.29 0 0 0 .012-.057c.01.001-.001.037-.002.057zm.093-.194l.007-.081c.004.027.001.055-.007.081zM.026-5.825c-.002-.02.001-.04.008-.059l.023-.084c.007-.002-.016.061-.002.045-.007.012-.012.026-.015.04l-.013.058zm1.506-.584l-.01-.004c.005.005.032-.039.013-.021-.002-.015.014-.016.021-.035-.005.021-.014.041-.025.06zm.218-.382a.13.13 0 0 1 .028-.05c-.006.018-.016.035-.028.05zM.617-7.524c-.002-.003.005-.013.012-.024s.011-.017.015-.026c-.009.008-.017.016-.024.026.004-.021.036-.049.035-.032-.025.031-.023.042-.038.057zm1.167.58c.002-.021.009-.013.025-.043.005.005-.013.024-.025.043zm.038-.004c.014-.024.031-.046.051-.065-.013.024-.031.046-.051.065z"/><path d="M1.815-6.993c.013-.021.033-.042.056-.072-.004.015-.04.052-.047.068zm.321-.26c-.013.002.017-.02.003-.019.012-.014.012-.001.023-.012.001.011-.01.012-.026.031zm4.996.571c.017.019.032.041.042.065-.004 0-.015-.017-.013-.019-.008-.008-.016-.018-.021-.013-.01-.017-.013-.028-.008-.032z"/><path d="M7.129-6.661c.011.027.024.053.04.077l.011.019c.003.006.006.013.008.019s.007.022.008.034c-.008-.03-.071-.124-.066-.15zm.857-.439a.23.23 0 0 1 .025.036c.007.013.012.025.007.027-.014-.025-.017-.039-.033-.063zm-.696.611c.009 0 .019.002.033.026-.023-.008-.027-.017-.033-.026z"/><path d="M7.983-6.906a.48.48 0 0 1 .042.064.88.88 0 0 1 .035.076.37.37 0 0 1 .033.124l-.023-.056-.023-.062-.027-.07c-.011-.026-.024-.052-.038-.077zm.085.386c.013.004.016.035.034.068.006 0 .005-.011-.004-.03.012.023.014.029.015.036a.27.27 0 0 1 .002.031c0 .01-.014-.023-.019-.012l-.009-.028-.007-.023c-.002-.014-.006-.028-.011-.042zm-.434.438a.47.47 0 0 1 .032.118.98.98 0 0 1-.032-.118zm.256 1.085c.007.036.004.067-.006.05 0-.017.002-.034.006-.05zm.549.266l.001-.048c.01.005.016.005.015.029-.01-.009-.027.077-.026.01zm-.632 1.485c-.009.025-.021.05-.034.073a.25.25 0 0 1-.039.053l.035-.056.039-.07zm-.203.431c.014-.013.026-.027.035-.044 0 .012.006.024.028-.015l-.037.075c-.004-.013-.036.015-.007-.026-.011 0-.017.018-.029.037-.02.022.021-.032.009-.027zm-.379.301c.008.003 0 .02-.013.036s-.029.03-.036.028c.056-.052.024-.028.048-.064zm-.01.156c-.005-.006.037-.047.049-.055-.013.017-.022.022-.049.055zM1.094-4.665a.34.34 0 0 0 .003.065c.003.023.009.045.013.068-.013-.005.007.021-.002.026a.27.27 0 0 1-.014-.074c-.001-.025-.005-.056-.014-.083-.003.003 0 .022 0 .034s-.007-.072.002-.068c.003.033.003.049.011.033zm-1.237-.103c0-.023-.008-.014-.007-.045a.53.53 0 0 0-.008-.148c.002-.023.004-.024.008-.012l-.002-.182.002-.084v-.087c.007.03.015-.113.003-.08l.019-.129.009-.071.009-.073.019-.141.007-.064.007-.057a.58.58 0 0 1-.01.049l-.011.057a.42.42 0 0 0-.012.099c-.007-.027-.01.05-.007.057h-.008a5 5 0 0 0-.052.757 5.42 5.42 0 0 0 .058.708c.011.04.02.082.026.123a.4.4 0 0 0 .036.121.68.68 0 0 0 .032.146c-.02-.021.015.068 0 .06.02.049.025.112.041.132-.017-.068-.037-.111-.03-.136a1.21 1.21 0 0 1 .044.179l.017.044.02.051a.42.42 0 0 1 .027.091c.013 0 .017.06.035.084.029.037.039.093.058.125-.005-.013-.009-.025-.004-.023.015.032.008.033.023.065.01 0-.015-.048-.018-.068a.58.58 0 0 1-.064-.159l.021.041c.007.014.011.029.014.044.01.005-.004-.023.001-.026-.014-.035-.021-.033-.035-.072.009.004.02.027.029.037-.013-.039-.02-.025-.032-.061 0-.012.019.029.01-.004-.012-.024-.019-.05-.021-.077-.012.013-.017-.054-.033-.073.014.032.014.064 0 .036a.68.68 0 0 0-.019-.091c.017.038.028.026.007-.003L.04-3.731.021-3.816a.25.25 0 0 1 .003.035c-.019-.069-.006-.06-.02-.068-.012-.047.002-.042 0-.071-.007.013-.014-.049-.02-.041.004.021.019.066.008.057l-.017-.076-.008-.029-.01-.039c.009.005.012.023.016.041.002.012.007.024.015.033l-.008-.042-.008-.033a.46.46 0 0 0-.02-.056c.003-.03-.01-.07-.015-.067-.002-.033.007-.016.015-.004l-.014-.074a.42.42 0 0 1-.002-.062c.003.016.007.012.011.021a.2.2 0 0 1-.009-.091c-.005-.015-.009-.03-.012-.045l-.012-.068a.9.9 0 0 1-.007-.143c-.007-.023-.012-.048-.013-.072l-.006-.119c-.012-.015.002.068-.006.068a.26.26 0 0 1-.009-.124c.006-.005 0 .052.009.033-.01-.128-.024.025-.025.083zm.206 1.177l-.007.003c-.013-.034-.004-.028-.008-.045.007.013.012.028.015.042zm-.016-.091c-.011-.019-.021-.039-.03-.059-.005-.012-.009-.025-.013-.037s-.005-.029-.006-.043l.01-.003c.006.019.004.049.014.055.008.037-.008-.011-.01-.009.002.03.024.039.035.096zm-.122-.533a.27.27 0 0 1-.016-.071.17.17 0 0 1 0-.065l.01.074.006.061zm.008-.071a.43.43 0 0 1-.018-.1c.013.032.019.066.018.1zm-.027-.087c-.007-.022-.012-.044-.014-.067.009-.012.016.049.014.067zm.015-.049c-.006.005-.01-.014-.013-.044.006-.005.011.013.013.044zm-.025-.03c-.02-.019-.01-.147 0-.126a.51.51 0 0 0 0 .126zm-.02-.1a.76.76 0 0 1-.01-.091c.011.029.015.06.01.091zm.025-.049c-.006.013-.015-.033-.015.002l-.003-.063-.001-.085c.006.018.01.036.012.055l.009.092zm6.381 2.937c-.01.008-.065.047-.073.038a.63.63 0 0 0 .073-.038zm.259.739a.62.62 0 0 1-.063.032l-.045.021c-.01.005-.02.01-.03.017-.016.002.013-.013.049-.029l.089-.042zm-.914-.324c-.016.011-.034.018-.052.023-.002-.007-.03.003-.032-.004.029-.001.057-.007.084-.018zm-.417.256c.034-.007.026.005.06-.003-.006.007-.059.013-.05.004-.012.003-.019.007-.017.011-.039.004-.009-.007.007-.012zm-1.064.207c0 .008-.023.008-.041.01l-.061-.009.062.003c.013.001.027 0 .04-.003zm-.054.072c-.017.006-.035.002-.052-.001l-.051-.01c.017-.001.034.001.05.007l.029.006c.008.001.016.001.024-.001zm-.242.43a.33.33 0 0 1 .11.013.32.32 0 0 0 .096.011c-.011-.004-.022-.006-.033-.005s-.024-.003-.035-.007a.27.27 0 0 1 .04.003c.013.002.034.003.052.002.01.01.001.007.011.017-.031-.001-.063-.003-.094-.008l-.114-.014c.035-.005-.063-.012-.057-.015.004.011-.044.004-.068-.01-.032-.003.016.01-.012.009-.038-.013-.131-.019-.114-.028-.008 0-.016-.003-.023-.007-.028-.002.021.015-.036.004.04-.002-.026-.011-.044-.02l.027.001.033.003.077.012.08.014c.022.004.045.007.068.008a.23.23 0 0 1 .034.014z"/><path d="M4.076-.554c.005.003-.015.002-.041-.003L3.958-.57c.02-.001.04.001.059.005a.54.54 0 0 0 .059.01zm-.138-.198c-.013.003-.055-.011-.092-.015-.002-.004.012 0 .026.001s.028.004.026 0c.013.006.027.011.041.014zm-.817-.309a.62.62 0 0 1-.104-.039 1.08 1.08 0 0 1 .104.039zm-.565.151c-.032-.009-.062-.023-.091-.04.022.006.064.028.091.04zm-.322-.092c-.019-.005-.068-.038-.073-.03-.025-.02.056.014.073.03zm-.282 0c-.019 0 .035.043.073.059-.02 0-.115-.064-.164-.086.037.02.045.012.064.029s.012-.006-.005-.015c.004-.001.03.018.032.014zm.418-1.226a.58.58 0 0 1-.104-.079.49.49 0 0 0-.1-.074c0-.01-.028-.032-.023-.039a.47.47 0 0 0 .039.039l.034.026a.33.33 0 0 1 .06.055.22.22 0 0 1 .047.033zm-.624.832c-.003-.012-.012-.012-.033-.029-.03-.028.035.028.023.007.025.019.047.037.039.04-.014-.012-.022-.015-.03-.016zm-.265-.216c-.015-.015-.034-.033-.027-.036a.39.39 0 0 0 .068.055c.001-.002-.009-.01-.015-.017a.41.41 0 0 1 .089.069l.048.047.045.044c-.006.002-.021-.008-.032-.012 0-.02-.14-.127-.176-.151zm-.194.043a.68.68 0 0 1-.052-.045c.007 0 .016.007.023.008l-.052-.045-.052-.054-.11-.119-.106-.123-.026-.029-.025-.028-.048-.052a.27.27 0 0 0-.057-.077.28.28 0 0 1-.028-.032c-.008-.011-.012-.019-.015-.03.003.023.017.04.031.058l.04.053c.023.034.039.063.036.07.007-.014-.023-.005-.038-.044-.014-.008.011.03-.008.007a.55.55 0 0 1-.026-.054L.75-2.132.728-2.156c-.005.004-.037-.06-.049-.078.005.023.044.076.045.096.013.003.014.017.037.044.008.019.028.059.052.076-.014-.02-.012-.023-.001-.014l.056.072a.61.61 0 0 1 .056.076c.014-.006.037.031.064.066.03.02.025.024.03.035-.013-.015-.048-.048-.028-.02.003-.002.016.013.028.028s.027.03.03.027c-.018-.018-.024-.028-.019-.03.015.025.021.014.049.048.009-.004.02-.003.028.003.01.03.048.042.075.071a.18.18 0 0 1 .034.066.45.45 0 0 0 .044.037c-.017-.017-.012-.021-.018-.032.044.036.086.076.125.117a.13.13 0 0 1 .057.039c-.023-.024-.048-.047-.074-.068s-.046-.043-.063-.069zm-.313-.318c-.013.002-.026-.012-.038-.027-.004-.022.042.048.038.027z"/><path d="M2.112-2.436c.005.014-.026-.031-.048-.049.023.012.043.028.061.047-.01-.005-.035-.023-.013.002zm-.852.591c.015.016.015.005.034.028.004.015.012.03.023.042-.004 0-.016-.015-.019-.012-.004-.023-.051-.059-.047-.079.008.011.012.018.009.022zm-.023-.024c0 .012-.018-.013-.015-.016-.011-.012-.021-.023-.025-.023-.017-.021.017.003.03.016-.006.002-.004.008.01.022z"/><path d="M1.956-2.653c-.019-.009-.054-.058-.072-.071l.045.037c.023.02.042.042.037.048z"/><path d="M1.883-2.746c.006.002 0-.008-.008-.023l-.023-.04c-.002.003-.016-.013-.035-.037l-.031-.039-.016-.02-.015-.02c.026.026.05.052.073.081a.29.29 0 0 1 .055.086l.059.071a.87.87 0 0 1-.086-.087L1.78-2.87a.25.25 0 0 1 .045.052.87.87 0 0 0 .056.072zm-.933.543c.024.037-.003 0-.008.007L.908-2.24c.018.014 0-.007 0-.015-.02-.028-.014.006-.04-.038 0-.009.015.015.019.013a.39.39 0 0 1-.071-.099.15.15 0 0 1 .039.054c.009.005.023.018.029.019.006.013.014.026.023.037-.003 0-.014-.015-.021-.025.006.008.017.03.03.05a.13.13 0 0 0 .035.041z"/><path d="M1.725-2.943a.26.26 0 0 0-.013-.032c.004 0 .014.016.022.026-.011.004-.019.011-.036-.015.002-.015.019.015.028.021zm-.075-.069c-.017-.012-.024-.042-.039-.055.011 0 .029.04.039.055zm-.86.599c-.016-.02-.023-.035-.021-.04-.019-.025-.01-.008-.014-.003l-.024-.037c.037.042-.007-.019-.002-.026.023.033.044.069.061.106zm-.149-.232c.019.038.04.057.045.075-.005-.001-.014-.014-.018-.014l-.013-.024C.65-2.617.646-2.627.643-2.635c-.007-.016-.009-.026.003-.014z"/><path d="M.947-2.961c.004-.008.068.101.04.058-.015-.028-.021-.02-.04-.058zm.009-.006a.15.15 0 0 1-.026-.04.51.51 0 0 0-.023-.048c.015.013.024.055.049.088zm-.445.027c0 .01.012.033.006.035l-.076-.147c.015.019.01.005.021.014l.014.03c-.003 0-.01-.017-.016-.029.002.019.009.038.02.054.012.023.026.043.031.043zm-.143-.122C.35-3.095.34-3.131.313-3.184c.023.039.041.08.055.122zm-.146-.064c.016.031-.002.017.019.054-.011-.006-.029-.047-.037-.045-.005-.032.032.046.018-.009z"/><path d="M.336-3.183C.332-3.206.313-3.25.306-3.28l-.004.002c-.01-.05.048.096.035.094zm-.149-.128c-.022-.031-.006-.032-.028-.074-.009-.034.012.023.015.018.001.019.006.038.013.056z"/><path d="M.269-3.373c-.016-.009-.023-.068-.031-.095s.006-.023-.004-.059C.23-3.537.227-3.531.222-3.545.21-3.578.209-3.593.218-3.591a.5.5 0 0 0 .036.104l-.007.003c.007.017.012.035.016.053.023.007-.002-.042.012-.029l.015.066c-.02-.045-.015-.016-.021-.003a.2.2 0 0 0-.018-.052c-.012-.003.006.043.019.076z"/><path d="M.153-3.37a.23.23 0 0 0-.02-.065c.004-.001.004-.011 0-.025a.31.31 0 0 1 .02.09zm.056-.206c-.014-.02-.017-.045-.01-.068-.007-.009-.011-.019-.014-.03.011.011.017.026.017.041 0 .009.001.018.002.028a.18.18 0 0 0 .005.029zm.997-.88c-.005-.015-.007-.074-.011-.106.007.035.011.07.011.106zm-.63-.019c.001.019.006.034.005.019.009.05.003.061-.012.012-.002-.01.008-.022-.001-.03zm-.025-.33a.16.16 0 0 1-.007-.058c.009.018.011.038.007.058zm.615-.092c-.004-.012-.006-.025-.005-.038l.005-.044c.002.011.002.022 0 .033s-.001.033.001.049zm.127-.898l-.009.023a.46.46 0 0 1 .007-.065c.008 0-.008.034.001.042z"/><path d="M1.375-6.094c0 .016-.03.074-.008.04-.03.058-.052.121-.064.185.008-.029.02-.057.035-.084a.38.38 0 0 1-.021.065c-.009.021-.013.034-.013.052.014-.019.019-.045.026-.044.002.01-.024.063-.015.072l.019-.072.02-.068.044-.131.051-.128c.008-.023.019-.043.028-.065l.03-.068c-.009.01-.019.033-.027.042.01-.028.023-.073.011-.057.002.016-.018.047-.03.068-.004.02.02-.011.008.02a.22.22 0 0 0-.021.039l-.016.045c-.006.024-.016.046-.032.064a.54.54 0 0 1 .025-.067.14.14 0 0 0 .015-.065c-.005.011-.009.022-.013.034l-.012.035a.22.22 0 0 1-.03.059l-.001.025c-.015.025-.002-.009-.01.003zm-.034.135c-.009 0 .002-.037.01-.048 0 .017-.003.033-.01.048zm-.141.093c-.005-.003.009-.035.011-.049.009.007-.007.031-.011.049z"/><path d="M1.432-6.362l.014-.049c.007-.018.016-.035.028-.051-.006.016-.012.032-.02.047l-.021.052z"/><path d="M1.47-6.409c-.002-.016.011-.066.021-.054-.014.023-.036.048-.021.054zm.202-.248c.002-.024.019-.049.041-.07-.006.019-.029.041-.041.07zM.539-7.398c-.015.025-.043.051-.03.023-.003-.002.014-.006.03-.023z"/><path d="M1.681-6.803c-.008.013-.012.013-.02.027.002-.021.012-.029.029-.06.014-.016-.022.038-.009.034zm.139-.176c.014-.031.062-.08.078-.117-.004.028-.051.079-.078.117zm.069-.063c-.01.016.003-.021.01-.013zm-1.012-.86c-.008.005.005-.01.023-.028s.031-.033.044-.052c-.014.028.023-.012.04-.027-.007.023-.036.045-.065.08.015-.023.009-.02-.003-.01l-.021.018zm1.14-1.028c-.002.006-.013.007-.029.019.011-.012.028-.024-.013.002-.01 0 .053-.041.076-.052.001.005-.07.049-.034.031zm5.08 2.167c.018.025.005.028.015.047-.006-.005-.02-.041-.015-.047zm.345-.096c.008.001.008.023.021.038-.008-.002-.018-.015-.03-.032.008.004.021.02.008-.006zm-.234.312a.18.18 0 0 1 .026.066c-.011-.021-.02-.043-.026-.066zm-.01.034c.015.009.012.03.019.042.023.049-.02-.033-.019-.042zm.474.423c.004.014.008.015.013.03-.005.002-.012-.012-.018-.028l-.015-.039c.02.033.009-.01.016-.016.014.015.03.041.028.015.004.015.007.032.01.047s.004.025.003.038c-.01-.035-.023-.077-.038-.047z"/><path d="M7.902-5.216c.003-.035-.004-.021-.008-.007.012-.004.008.056.016.099-.005.005-.007.021-.015.018-.001-.026 0-.093-.017-.082-.007-.03-.011-.072-.017-.111a.58.58 0 0 0-.024-.1c-.011.019-.014.041-.008.062l.021.086c-.01-.005-.007.023-.01.035-.008-.012-.014-.026-.016-.04a.22.22 0 0 1-.003-.026l-.003-.029-.002-.117c.005.019.007-.019.014.006.003-.013.005-.026.005-.04l.002-.044a.2.2 0 0 1 .011-.073c-.003-.02-.008-.017-.01-.04-.001-.039-.012-.076.007-.062-.004-.014-.007-.042-.013-.031 0-.015.006-.019.005-.036-.003-.027-.01-.004-.013-.031.011-.011-.008-.064.004-.072-.015-.036-.018-.076-.008-.113a.43.43 0 0 1 .043.145c.005.06.014.12.026.18-.016.003-.012.049.002.095 0 .015-.004.02-.012.02.006.025.009.05.01.075.023.077.059.133.072.271-.008.012-.003.017-.004.043a.68.68 0 0 0-.036-.089zm.143 1.857c-.013.05-.012.063-.031.101-.002-.009-.02.003-.018.013-.014.019.007-.042-.023.022-.008-.005.024-.056.011-.057.026-.021.046-.048.061-.078zM1.69-1.169c-.025-.01-.067-.041-.091-.051-.02-.016-.016-.021-.011-.025-.013-.006-.02-.013-.017-.016-.015-.007-.028-.016-.041-.027s-.03-.022-.045-.032a.25.25 0 0 0-.062-.071c.032.024.063.052.091.076a.62.62 0 0 0 .072.054.5.5 0 0 0 .047.054.37.37 0 0 0 .034.018c.016.009.031.018.045.029-.006.002-.002.008.015.02-.022-.009-.03-.018-.037-.029zM.309-3.208C.301-3.223.295-3.22.285-3.246c.013 0-.009-.049-.023-.087.008-.008.028.063.042.091.002.012-.008.007.005.035z"/></g><g fill-rule="nonzero"><path d="M1.41-7.315c.317-.41.712-.753 1.162-1.01s.949-.421 1.464-.482l.065-.01c-.019.001-.038.003-.057.006-.515.059-1.013.222-1.464.477a3.93 3.93 0 0 0-1.163 1.007l-.041.054c.012-.013.024-.028.034-.042z"/><path d="M7.669-6.935l-.056-.086-.058-.081-.057-.077-.057-.07-.04-.051c.004.008-.013-.013-.045-.05-.333-.384-.739-.697-1.195-.921a3.67 3.67 0 0 0-1.498-.376.39.39 0 0 1-.044.002h-.108a.45.45 0 0 0-.045.002l-.101.003-.054.002-.055.004-.112.007a3.71 3.71 0 0 0-1.301.37l-.064.034-.068.037-.107.063-.037.023-.123.081-.119.086-.116.091-.057.045-.055.049a3.6 3.6 0 0 0-.414.425c.008-.01.018-.02.029-.028a.51.51 0 0 1-.04.053l-.087.111-.096.131.068-.095.073-.091.037-.045.115-.132.044-.045a3.62 3.62 0 0 1 .38-.352l.057-.045.057-.044.116-.083.119-.078.121-.073.061-.036c.02-.012.042-.023.062-.033l.063-.033.063-.032.128-.058c.021-.01.043-.018.065-.027l.065-.026.065-.025.066-.023.066-.023.033-.011.034-.01.133-.039.135-.032c.045-.012.091-.019.136-.027l.136-.023.136-.018.136-.012.068-.005.068-.002.068-.002h.068l.136.003c.023 0 .045.002.068.003l.136.009.068.008.136.016.267.05c.089.017.175.044.262.068l.256.089c.085.03.166.068.25.105l.239.124.07.041-.162-.087-.149-.073-.151-.065-.152-.057c-.204-.072-.413-.126-.627-.161a3.77 3.77 0 0 0-1.381.027l-.028.005-.082.02-.109.027-.162.048-.159.056-.104.042c-.07.027-.136.06-.205.091l-.025.012-.075.039-.05.026-.049.027-.192.116-.094.062-.091.066-.045.033-.044.035-.088.07c-.115.097-.224.2-.327.31l-.039.041-.019.021-.092.108-.018.023-.017.023-.035.045-.035.045-.034.045-.127.188-.06.097-.056.099-.028.05-.026.051-.051.102-.047.105-.023.052-.021.053-.044.111c-.015.037-.025.075-.038.114l-.019.056-.016.057-.032.114-.027.115-.013.057-.01.058-.02.116-.015.116c-.011.077-.015.155-.021.232l-.002.029v.029l-.001.058-.002.116.003.116.002.058.005.058.009.116.015.115A3.62 3.62 0 0 0 6.25-1.782l.104-.06c.017-.01.034-.02.05-.031l.049-.032.188-.128.023-.016.021-.017.042-.033.082-.063.075-.063.07-.06.064-.058.058-.054.096-.093c.015-.013.027-.026.038-.038l.03-.031c.013-.013.026-.025.041-.037.02-.015.008.007-.03.059l-.034.044c-.012.017-.028.034-.045.053l-.055.062c-.021.024-.043.047-.066.068.04-.036.075-.075.112-.114l.027-.028.028-.029.03-.035.084-.095c.122-.147.235-.301.338-.461l.048-.075.032-.052.014-.024.048-.082.025-.045.075-.146.045-.103c.032-.068.057-.138.083-.2l.033-.091.028-.077-.006.044.014-.044.08-.282.004.016a.42.42 0 0 1-.005.083L8.17-4c.004-.003.003.012-.003.044l.013-.035.01-.029a.3.3 0 0 1 .015-.037c.007-.014.009-.005.003.037.017-.062.017-.051.002.024l-.023.088.029-.089.023-.099.034-.165.012-.062.007-.038.007-.049.023-.15.006-.055c.023-.14.023-.141.027-.118v.028l.003-.038.001-.03.002-.04.002-.045.004-.054c.003-.005.003-.005.004-.024l.005.061v.036l-.002.117-.02.159v.035l-.008.037.006-.021-.012.08.014-.091-.023.176c-.004.033-.009.052-.016.089l-.019.103-.011.05-.025.112-.011.042-.011.037-.023.078-.015.05-.023.063-.017.044c-.005.013-.007.023-.012.039l-.008.025c-.003.009-.007.018-.011.027l-.039.097-.008.021-.034.082-.007.017-.051.116-.047.096-.03.062-.039.071-.045.078-.045.071.029-.042c.018-.027.005 0 .014-.015a3.77 3.77 0 0 0 .304-.609 3.87 3.87 0 0 0 .197-.678l.021-.114.011-.06c.002-.006.001.007 0 .032s-.009.061-.016.104c-.04.249-.105.493-.195.728-.095.249-.216.488-.361.712s-.315.434-.505.624c-.181.182-.381.345-.595.486a3.91 3.91 0 0 1-.689.367l.035-.013-.19.073-.021.007c.025-.007.049-.017.073-.025l.072-.026.05-.019.049-.021A3.94 3.94 0 0 0 7.47-2.386c.197-.222.368-.466.509-.727a.77.77 0 0 1 .059-.106c-.002.009-.034.074-.068.141A3.86 3.86 0 0 1 6.37-1.485a3.66 3.66 0 0 1-.606.252l-.065.023-.032.01-.032.009-.126.035c-.02.006-.041.01-.061.015l-.059.013-.112.023-.008.001.028-.004.082-.016-.091.019-.078.012-.076.012-.041.006-.045.005h.045l-.189.023-.064.004-.128.009-.129.003c-.086.004-.173-.001-.259-.003-.022 0-.043-.002-.064-.004l-.064-.005-.064-.005c-.011 0-.021-.001-.032-.003l-.032-.004a3.73 3.73 0 0 1-.959-.239l-.067-.027-.186-.077-.047-.021-.045-.023-.094-.047c-.032-.015-.062-.033-.094-.051l-.095-.054-.096-.06-.098-.064.033.023.034.023.067.044.068.043.07.04c-.206-.115-.401-.249-.581-.402l-.095-.083-.093-.088-.045-.044-.045-.045-.087-.093-.083-.096-.041-.048-.038-.049-.075-.097-.068-.098a3.66 3.66 0 0 1-.225-.372l-.023-.043-.02-.042-.037-.078-.032-.073-.027-.065c-.132-.295-.226-.605-.28-.924s-.071-.642-.045-.964c.037-.484.164-.957.374-1.394l.055-.108.028-.054.09-.157.065-.102.05-.074.03-.038c.004-.004-.002.006-.012.021l-.044.066C.998-6.7.816-6.268.714-5.814c-.051.228-.082.459-.092.693l-.004.175.005.175.032.349-.009-.073-.008-.073-.011-.146c-.002-.025-.003-.049-.003-.073l-.003-.147.002-.073c.003-.196.022-.392.056-.586a3.74 3.74 0 0 1 .145-.575l.036-.106.014-.035.055-.139.128-.27.035-.068.038-.067.038-.067.019-.033.021-.032.082-.127.088-.123c.606-.826 1.514-1.38 2.525-1.541a3.95 3.95 0 0 1 1.275.007c.103.016.205.04.307.064l.152.042.076.023.075.025a3.89 3.89 0 0 1 1.937 1.466l.016.023.015.023.03.047.061.094.056.097.054.098.1.201.047.103.042.105c.029.07.052.142.077.213.013.036.023.072.033.109l.031.11.026.111.013.056.006.028.005.028.02.114.01.057.007.058.015.119c.005.037.005.073.007.103a1.01 1.01 0 0 1 .003.113c-.002.01-.005-.015-.01-.062l-.009-.087-.005-.054-.008-.059-.016-.12-.021-.119-.011-.059-.006-.03-.007-.029-.028-.117c-.008-.039-.021-.077-.032-.116l-.034-.116-.039-.114-.02-.057-.068-.167-.05-.109c-.032-.074-.071-.144-.107-.215l-.014-.027-.015-.026-.03-.052-.03-.052-.031-.051-.134-.199-.07-.097-.112-.141-.118-.136a4.06 4.06 0 0 0-.345-.329c-.059-.053-.124-.101-.187-.15l-.023-.018-.025-.017-.049-.035-.049-.035-.05-.034-.205-.126-.105-.059-.107-.054-.054-.027-.055-.025-.11-.049-.113-.044-.056-.023-.057-.019-.115-.038c-.019-.007-.039-.012-.058-.017l-.058-.016-.058-.016-.029-.008-.03-.007-.118-.027c-.039-.01-.079-.015-.119-.023l-.119-.02-.181-.022-.182-.014-.122-.004-.061-.001h-.061l-.122.003c-.02 0-.041 0-.061.002l-.183.014-.121.015-.061.008c-.02.002-.04.007-.061.01l-.121.023c-.02.003-.04.008-.06.013l-.06.014-.09.021-.03.008-.119.034c-.04.01-.078.025-.117.038l-.059.02-.058.021-.229.095c-.152.068-.3.145-.442.232-.243.15-.468.325-.673.524-.007.016-.023.034-.041.051a3.92 3.92 0 0 1 .361-.318c.062-.051.129-.096.195-.143l.025-.017.025-.016.051-.032.051-.032.025-.016.026-.015a3.73 3.73 0 0 1 .606-.297c.213-.081.432-.144.655-.187a3.81 3.81 0 0 1 1.396-.007 3.63 3.63 0 0 1 .905.285l.052.024.052.025.102.052.05.027.148.087.096.062.094.064.182.136.057.045.029.023.027.023.109.094.207.202.05.052.048.054.094.109.091.114c.015.019.029.039.043.058l.042.059c.224.317.398.666.517 1.036.008.023.015.047.021.072.002.011-.003-.005-.012-.035a3.89 3.89 0 0 0-.807-1.41c.031.032.057.068.079.106a1.26 1.26 0 0 1-.124-.127l.122.142.115.147a1.28 1.28 0 0 1 .076.114c-.029-.035-.057-.071-.082-.109-.303-.408-.684-.752-1.121-1.011l-.099-.056-.025-.014-.076-.039-.102-.051-.104-.045-.052-.023-.053-.021-.106-.042-.108-.037-.054-.018-.054-.017c-.291-.087-.592-.139-.895-.156l.174.023.278.04c.213.035.422.088.625.159 1.045.373 1.875 1.183 2.274 2.219.079.207.14.42.182.637l.015.082.011.061.003.021.021.165.013.166c0 .014.002.028.003.042v.042l.002.083v.045a.27.27 0 0 1-.003-.038c-.007-.536-.128-1.064-.354-1.55v.002c.008.02.009.024 0 .003l-.036-.075c-.011-.023-.009-.021 0-.003-.441-.891-1.213-1.574-2.15-1.903.425.151.82.377 1.166.666l.127.111.122.116.116.122.111.127a3.84 3.84 0 0 1 .384.553l.037.063c.013.021.023.043.035.065l.035.065.034.066.029.068c.004.011-.007-.01-.018-.036l-.036-.074c.01.019.018.038.026.056l.023.052.037.088a.39.39 0 0 1 .025.081.86.86 0 0 1-.044-.093l-.044-.094-.025-.055-.029-.057c-.212-.421-.5-.799-.85-1.115l-.116-.099-.121-.093a3.78 3.78 0 0 1 1.26 1.74l.025.077a.2.2 0 0 1 .009.034.93.93 0 0 1-.038-.104l-.02-.056-.023-.055-.045-.111-.05-.109-.025-.054-.083-.159-.089-.155-.032-.05-.065-.1-.104-.146-.037-.047-.074-.094-.079-.091-.039-.045-.042-.044-.083-.087-.087-.083-.044-.041-.045-.039-.091-.078-.094-.074-.047-.037-.049-.035-.098-.07-.101-.065-.051-.032-.052-.03-.104-.06-.107-.055-.054-.027-.055-.025-.11-.049-.112-.045a1.18 1.18 0 0 0-.114-.042l-.114-.038-.116-.033-.234-.058c-.418-.081-.847-.09-1.268-.028l.163-.017.129-.01.128-.004.064-.002.19.004.125.009.062.004.062.007.123.015.121.021.061.01.06.013.119.027.117.032.058.016c.02.005.038.012.058.018l.114.038.114.042c.075.027.148.062.221.094.145.067.285.144.42.23.068.041.133.089.199.134.017.011.033.023.048.036l.048.037.095.075.092.079.045.041.045.042c.061.054.116.115.173.174l.082.093.041.047.039.049.078.099.074.103a.47.47 0 0 1 .037.056l-.032-.043-.072-.1-.075-.096c-.049-.065-.104-.123-.156-.184-.324-.352-.711-.639-1.141-.847a3.63 3.63 0 0 0-.746-.265c-.248-.059-.501-.092-.755-.099a3.72 3.72 0 0 1 2.665 1.253l.076.089c.002.002.008.009.016.019a3.48 3.48 0 0 1 .244.33l.04.064c.007.013-.003-.002-.019-.027zm-.881 5.082l.023-.015-.076.053-.014.009-.032.02-.064.039.015-.009c.01-.005.023-.014.037-.024zm1.041-1.217l.029-.045.011-.018-.04.063zM.636-5.182a3.91 3.91 0 0 0 .247 1.64c-.026-.062-.047-.127-.068-.191l-.016-.048-.015-.049-.028-.098a4.05 4.05 0 0 1-.112-.621 4.15 4.15 0 0 1-.009-.633zm6.943 2.585c-.077.096-.16.188-.248.275l-.102.108-.11.105c-.197.182-.414.343-.645.479.031-.015-.024.016-.052.032l-.086.05c.25-.134.485-.295.7-.48l.074-.064.072-.068.142-.142c.092-.097.177-.198.254-.295zm.744-1.797l.004-.023-.003.053-.001-.03zm.004-.083l-.005.04c0-.013.002-.027.005-.04zm-.066.363l.014-.05zm-.167.223l-.011.07-.014.068.016-.075c.008-.038.012-.076.012-.076z"/></g><g fill-rule="evenodd"><path d="M2.156-7.236c.006-.01.013-.019.023-.026s.019-.017.026-.027c.005.005-.003.014-.014.023l-.035.031zm.028-.007c.009-.005.028-.025.038-.03-.005.009-.011.016-.019.023s-.015.011-.019.007zm.056-.113c.012-.018.026-.034.042-.048a.22.22 0 0 1 .047-.036c0 .007-.011.019-.025.032.01-.013-.004-.004-.019.009s-.027.029-.015.026c-.015.014-.012-.003-.029.017zm.211-.203l-.005-.006c.023-.021.016 0 .037-.019.002.006-.027.023-.032.025zm.134-.069c-.003-.015.036-.028.054-.049.001.01-.043.035-.054.049z"/><path d="M2.64-7.597l-.005-.006c.008.001.044-.034.044-.023zM2.268-9.03c0-.008.043-.03.087-.055-.001.006.01 0 .023-.006-.022.017-.076.035-.11.061zm.821 1.226c.007-.007.016-.012.025-.017l.029-.016c0 .005-.01.011-.021.017a.24.24 0 0 1-.033.015zm.273-1.66c.016-.01.035-.017.054-.021.017.006-.024.013-.054.021zm1.062-.167c.006-.003.032-.005.011-.005l.042-.005c.015-.001.032-.001.048 0a.89.89 0 0 1 .094.006c-.068.001-.11-.002-.195.004zm.026.033a.36.36 0 0 1 .045-.009l.045-.007c-.005.008-.014.011-.029.012a.9.9 0 0 1-.062.004z"/><path d="M4.632-9.615c-.002-.003-.021-.003-.035-.003.013-.007.066-.004.08-.011-.001.014-.01.011 0 .021l-.102.005c-.017-.002-.025-.007-.023-.013.032-.008.056.007.079.002zm.056-.022a.2.2 0 0 1 .081-.002c.043 0-.012-.016.045.003h-.062a.53.53 0 0 0-.064-.001zm.067 1.517c.007-.017.035.005.063 0 .004.01-.042-.001-.063 0zm.29-1.491c.042.001.085.004.126.01a.86.86 0 0 1-.126-.01zm.227.05c.018.006.037.009.057.01.01.011-.069-.003-.057-.01zm.108.063a.58.58 0 0 1 .068.01c.009.011-.059-.006-.068-.01zm-.063 1.517c.019.008.039.013.06.014-.004.007-.062.001-.06-.014zm.259-1.193l.002-.008c.016 0 .031.003.045.009l.049.016-.044-.007-.051-.01zm.426.031c.004-.004.019 0 .043.009.005.013-.037-.006-.043-.009z"/><path d="M6.037-9.145c.019.003.037.015.073.025.003.011-.032-.004-.064-.016zm.147-.024l.097.027c.005.006.011.011.019.014 0 .004-.01-.002-.021-.006s-.019-.007-.013 0c-.03-.015-.037-.015-.082-.035zm.247.417c.003-.015.062.032.097.04.009-.009-.041-.029-.063-.038.02-.012.093.057.099.036a.78.78 0 0 0 .072.044c.004.013-.038-.017-.057-.027.03.029-.035-.009 0 .024l-.034-.023c-.011-.007-.023-.013-.034-.019l-.079-.038zm-.354 1.085c.003-.016.034.021.045.014.011.012-.028 0-.003.023-.027-.005-.022-.025-.042-.036zm.212.084c.035.019-.012-.024.045.014l-.007.011c-.022-.015-.019-.005-.039-.025z"/><path d="M6.309-7.542c.04.023.057.014.102.043-.019-.019-.041-.033-.058-.04 0-.009.031-.008-.012-.04.04.011.04.05.088.081-.006.009 0 .023.011.039a.34.34 0 0 1-.054-.018c-.024-.015-.03-.026-.032-.035-.019-.004-.018-.01-.046-.029z"/><path d="M6.431-7.556c.024.015.023.02.02.023s-.005.007.016.023a.38.38 0 0 1-.036-.018c.013-.005-.009-.021 0-.028zm.888-.762c.027.014.01 0 .009-.012.015.013.019.012.035.026-.018-.007-.006.023-.044-.014zm.162-.055c.018.009.055.037.039.041-.027-.021-.012-.02-.039-.041zm.283.186c.002-.011.074.068.08.079.02.019.024.011.034.013a.19.19 0 0 1 .023.058c-.017-.012-.091-.093-.067-.077a.96.96 0 0 1-.07-.073zm-.077.325a.2.2 0 0 1 .055.065.1.1 0 0 1-.025-.028c-.009-.013-.019-.026-.03-.038zm.15.279l.066.067c-.012.007-.043-.035-.066-.067z"/><path d="M7.602-7.297l.006-.005a.26.26 0 0 0 .019.023c.009.023.003.018-.003.009l-.021-.027zm.019.059c.007-.002.021.015.036.032-.007.003.014.034-.007.017-.019-.024-.006-.023-.029-.05z"/></g><g fill-rule="nonzero"><path d="M.962-3.243l-.001.002z"/><path d="M.962-3.243L.94-3.301.898-3.405a.74.74 0 0 1 .077.167zm.403-5.161h0 0zm2.963-.946h0 0z"/></g><g fill-rule="evenodd"><path d="M6.989-7.796c.002-.017-.03-.055-.002-.046-.038-.029-.053-.062-.03-.054-.006-.021-.012-.026-.019-.031s-.012-.012-.015-.017l.004.003c.011.008.021.016.021.01-.052-.037-.003-.017-.02-.038-.008-.006-.017-.01-.027-.012-.016-.004-.03-.012-.041-.024l.013-.013c.007.007.024.025.028.02-.019-.015-.007-.017-.015-.028s-.02-.016-.032-.022c-.013-.017-.028-.029-.016-.028a.98.98 0 0 0 .146.11c.014.024.032.046.053.064a.26.26 0 0 1 .054.065c-.008-.006-.016-.01-.025-.015.006.006.011.014.014.022.015.019.022.026.03.033s.015.016.021.025a.36.36 0 0 1 .025.043.36.36 0 0 0 .068.099c.011-.009.045.025.072.06.009-.01.028.015.051.042.002-.017.02-.006.037.004s.032.019.027-.001c.006.012.021.029.027.027-.002-.008-.031-.035-.02-.034.015.012.021.021.027.027.008-.011-.007-.038-.025-.067s-.035-.051-.048-.078a.6.6 0 0 1 .121.14l.045.065a.6.6 0 0 0 .052.068l-.008.007c.02.033.047.06.08.081s.053.042.07.07l.028.023.04.037.074.09c.026.027.044.048.05.049.053.091.055.054.057.02.001-.019.002-.036.011-.031l-.011-.038c-.008-.022-.01-.031-.011-.04.02.015.019.007.011-.012l.023.034c.022.001.026.002.016-.023l-.036-.052-.038-.066-.012-.027-.011-.024c-.003-.006-.005-.013-.007-.02s-.004-.015-.005-.022c.012.01.015.011.023.023.014 0-.025-.045-.018-.052.015.023.027.049.034.075a.33.33 0 0 0 .024.061c-.001-.022-.005-.027-.008-.033.002-.013-.002-.025.001-.027l-.042-.071c-.019-.015-.034-.035-.044-.057.037.053-.004-.018.026.018l-.05-.081-.041-.058c.024.024.044.04.054.035-.012-.014-.012-.017-.012-.022l-.089-.147a1.41 1.41 0 0 0-.107-.15.37.37 0 0 1 .07.067l.045.052.025.028.025.029c.027.016.04.024.045.015l-.055-.071-.06-.076-.063-.076a.77.77 0 0 0-.07-.064l-.022-.03-.022-.024-.031-.031-.036-.031-.077-.066-.026-.023-.011-.01-.012-.011-.023-.021a.79.79 0 0 0-.079-.067c-.022-.02-.047-.035-.075-.044-.129-.102-.264-.196-.405-.281-.007-.012.033.007-.004-.015-.016-.006-.031-.014-.045-.023l-.024-.014-.031-.018a.99.99 0 0 0-.102-.053l.112.066.106.07.211.147.013.019a.99.99 0 0 0-.146-.088l-.051-.026-.046-.04c-.012-.01-.025-.019-.038-.027-.017.003-.039-.012-.066-.03a.9.9 0 0 0-.088-.058c-.025-.008-.034-.013-.032-.006s.007.011.015.017.016.014.015.018a.35.35 0 0 1-.093-.041l-.047-.025-.065-.033c-.02-.017-.088-.045-.079-.053.049.017.016.009.045.025.023 0 .005-.014-.021-.031.009.003.019.004.029.004s.029.002.042.009c-.012-.005-.023-.013-.033-.021.007 0 .014.002.02.004s.02.006.023.003c-.02-.008-.039-.018-.058-.028l-.026-.014-.037-.021c-.004.012-.059-.016-.078-.026l-.002-.001a.15.15 0 0 1 .068.025c-.008-.011.008-.004.021.001-.002-.007-.017-.013-.033-.018l-.05-.015c-.019-.006-.038-.013-.056-.021s-.03-.015-.043-.026a.64.64 0 0 0 .092.034l.021.005a.36.36 0 0 1 .047.013c.02-.009.005-.023-.023-.039v-.001l-.006-.003-.022-.012-.027-.014-.055-.029a1.96 1.96 0 0 1-.125-.051l-.021-.009a.78.78 0 0 0-.134-.045c.03.014.101.032.108.05-.015.001-.03-.003-.042-.011s-.023-.011-.03-.008c.044.018.064.019.078.035-.013-.005-.01.001-.021-.002-.036-.015-.077-.036-.077-.044-.02-.009-.028-.014-.03-.009.066.035.097.05.103.062a.57.57 0 0 1-.098-.026c-.031-.012-.063-.02-.096-.023-.028-.016-.059-.026-.091-.03.018.005.023.009.019.013a1.69 1.69 0 0 0-.187-.059l-.086-.021-.026-.006-.068-.015a.57.57 0 0 1 .105.014.26.26 0 0 1-.06-.027c.035.003.065.005.065-.004l.054.009c.035.004.069.011.102.023a.17.17 0 0 0-.081-.024l-.022-.003c.035-.01.027-.021.015-.04.021-.006.047-.001.073.004s.051.013.076.02l.146.045.144.053.034.012.04.014.077.026.114.054.04.021.1.047.02.022.049.022.058.031.095.061c.009-.006.031.01.056.027a.26.26 0 0 0 .058.034c.015.013.032.021.048.031l.023.015.021.017c.031.028.065.053.101.072.001-.011.01-.01-.03-.034.001.002-.022-.015-.046-.035a.3.3 0 0 1-.047-.042c-.059-.017-.104-.059-.177-.101-.008-.018-.023-.031-.042-.036.027.013.012.01-.001.008-.042-.015-.067-.03-.091-.045a.8.8 0 0 0-.072-.042c.023-.003.02 0 .06.023-.015-.028-.04-.037-.065-.04.02-.01-.111-.057-.143-.081 0 .006-.011.004-.033-.005a.9.9 0 0 0-.14-.061l-.035-.013-.035-.011-.07-.023-.068-.023-.034-.011-.034-.01-.136-.04-.144-.027c-.053-.012-.093-.027-.086-.039a3.92 3.92 0 0 0-.699-.097.97.97 0 0 1-.132.006c-.023 0-.045-.001-.067-.002l-.028-.001c-.011 0-.021 0-.031-.001s-.03.005-.045.004c-.039-.005-.025-.01.006-.014l.056-.005c.01 0 .02-.001.03-.002h.027c-.03 0-.028-.005-.019-.01s.023-.01.028-.012l.17-.003.079.002.079.002c.027 0 .033.01.065.013a.2.2 0 0 1 .072.006c.026.007.053.011.08.014.014.001.028 0 .042-.001l.046-.001c.032.004.066.023.096.027.018.003.05.004.065.006.021.009.038.005.065.009a.19.19 0 0 0 .084.022.48.48 0 0 1 .055.007c.03.015-.038.003.009.015.004-.008.049.004.066.002.021.013.045.022.069.026s.042.011.034.016l.063.014.072.018.129.04c.02-.002.042.006.06.012l.078.025.072.032.027.01.049.02.124.057c.011 0 .023.002.034.004.014.013.032.021.051.023.006.004.01.01.013.016s.007.008.022.013c-.031-.023.042.012.063.02.015.013.021.018.015.02-.024-.007-.031-.01-.033-.008.062.031.068.025.076.017l.001-.001c-.023-.016-.061-.036-.086-.052a.19.19 0 0 1-.075-.029l-.01-.006-.035-.019-.006-.003-.023-.015.023.004.102.048.04.022.065.036c.016-.005.025-.003.027-.007l-.117-.059-.036-.018-.076-.037c.03.019-.032-.006-.044-.009a.5.5 0 0 0-.089-.048l-.097-.041-.057-.024c.028.011.056.019.085.025-.015-.009-.03-.016-.046-.022s-.039-.013-.059-.016l.002-.008-.033-.011-.051-.018-.096-.035-.041-.015-.06-.021a.88.88 0 0 0-.101-.026c-.038-.016-.069-.024-.102-.033l-.1-.024c-.048-.015-.098-.025-.148-.03.014-.006.021-.006.028-.005a.2.2 0 0 1 .05.013c-.005-.02-.07-.02-.098-.023-.017-.007-.034-.007-.051-.006a.31.31 0 0 1-.061-.002.42.42 0 0 1-.07-.017.36.36 0 0 0-.084-.014c.012.008-.014.004-.044 0a.37.37 0 0 0-.067-.006c.059.008.026.007-.023.002s-.111-.01-.111-.019c.023.001.046 0 .068-.003-.013 0-.026-.001-.039-.004-.016-.013-.025-.014-.035-.014l-.062-.01c.005.009.05.011.067.018-.011-.001-.022-.001-.033 0-.026-.005-.043-.019-.068-.01l.035-.01.166.008c.062.006.123.015.184.028l.017.003c.026.001.051.004.076.01l.077.015.157.026c.025.01.034.012.032.015a1.32 1.32 0 0 1 .205.055l.055.018.042.012.045.011.044.009-.048-.016c-.015-.005-.026-.009-.026-.013l.043.012.006.002.052.016c.037.012.066.025.045.028l.036.01.05.016c.01-.003-.007-.008-.024-.013s-.029-.009-.027-.012a.7.7 0 0 1 .187.078l.07.027.065.028.117.053.103.053.091.055.038.026c.026.011-.004-.017.015-.006l.021.009c.039.019.032.025.055.04a.47.47 0 0 1 .1.051c-.001.016.036.037.071.056l.039.022.059.04c.021.013.04.029.061.044l.124.091.113.092.051.041.045.038-.051-.046-.048-.039a1.08 1.08 0 0 1-.087-.078l-.18-.126a2.49 2.49 0 0 0-.19-.128c.004-.005-.011-.016-.013-.023.01.003.02.007.029.012s.015.007.023.01a.28.28 0 0 0-.038-.025l-.055-.029c-.039-.019-.076-.043-.11-.07-.004.002-.014-.002-.025-.009l-.035-.021c-.04 0-.189-.079-.248-.107.015.004.029.009.043.016.02.009.036.016.021.006-.03-.014-.063-.028-.059-.035a.19.19 0 0 1 .027.012c.017.008.033.016.036.013a.45.45 0 0 0-.034-.017c-.03-.014-.059-.029-.043-.034-.021-.01-.019-.007-.017-.003-.021-.005-.025-.007-.029-.009-.015-.016-.002-.013.012-.01-.025-.023-.033-.017-.037-.013h-.001c-.03-.021.03.003.005-.015a.61.61 0 0 0-.065-.032l-.05-.02c.007.003.014.007.02.013a.17.17 0 0 0-.029-.009c-.009-.001-.017-.005-.024-.011l.01.004c.01.004.021.008.023.006-.028-.015-.068-.03-.103-.045-.03-.01-.058-.023-.086-.039a.09.09 0 0 1-.052-.007c-.018-.011-.037-.021-.056-.029-.023.006-.035.002-.046-.002l-.034-.009c-.021-.006-.035-.012-.03-.017l.031.007c.021.005.042.01.025.004l-.062-.015c-.023-.008-.048-.012-.072-.012-.022-.008-.019-.011-.016-.013-.021-.012-.022-.01-.024-.009-.026-.008-.142-.044-.09-.022l-.09-.023-.032-.008-.018.006-.029-.008-.034-.007L5.33-9.5l-.13-.023-.126-.015-.062-.009-.062-.008-.159-.001c-.014-.007-.039-.008-.065-.011l-.027-.002-.045-.005a.45.45 0 0 1 .075-.006c.01.001.019-.003.027-.009a.48.48 0 0 0-.088.007.45.45 0 0 1-.116.006c-.015.006.03.01 0 .01-.023-.004-.046-.003-.068.002 0-.007-.019-.008-.039-.01l-.151.004H4.26c-.011 0-.021.001-.032.003-.021.002-.042.006-.062.011a2.8 2.8 0 0 0-.583.085c-.01-.001-.02-.001-.03.002-.016.002-.031.005-.029-.002-.025.009-.051.016-.077.02s-.045.009-.065.019c.022-.004.025-.003.024 0l-.076.022c-.002-.003-.002-.009-.024 0-.039.021-.081.034-.125.038l-.051.01c-.001.006.017 0 .025 0l-.048.016-.029.01a.11.11 0 0 1-.057.008c.027-.012.042-.002.055-.016h-.025l-.091.04-.049.019-.048.02-.159.061c-.017.009-.033.019-.048.03-.012.005-.023.009-.036.012a.36.36 0 0 0-.082.033.39.39 0 0 0-.042.019.78.78 0 0 1-.144.068c-.004-.002.017-.014.034-.023s.027-.015.012-.01a.62.62 0 0 1-.081.042c-.008.015-.014.019-.021.023a.24.24 0 0 1-.045.021l.049-.033a.13.13 0 0 0 .034-.027l-.032.019-.02.013-.002.001-.053.034c-.035.02-.063.033-.066.023 0 .003-.016.013-.02.011.011-.007.02-.016.027-.027s.014-.017.022-.023a.75.75 0 0 1-.088.06l-.086.051-.035.021-.047.031-.038.03a.47.47 0 0 0-.035.036c-.026.006-.019.011-.059.036a.21.21 0 0 0-.078.05c.04-.03.062-.039.073-.037l-.076.055a.4.4 0 0 1-.074.05c.037-.026.023-.027.059-.054-.016-.002-.022-.003-.045.017-.002.008-.033.027-.07.053l-.057.042a.6.6 0 0 0-.045.039c.021-.004.027-.008.028-.004l-.03.022-.023.021c-.02.005-.021.008-.032.017-.003-.004-.017.007-.032.017-.009.008-.018.014-.029.019a.2.2 0 0 1-.035.036.29.29 0 0 0-.068.072c-.025.014-.045.032-.068.047-.005.007-.01.014-.014.022l-.01.017c-.006.004-.012.009-.018.014a.35.35 0 0 0-.084.096l-.007.011-.019.028a.22.22 0 0 1-.028.034c.01.017-.03.052-.063.081-.005.015.027-.016.008.006-.016.013-.025.023-.034.033l-.017.021-.018.025c-.013.003.005-.019.004-.025-.012.023-.039.048-.04.056.008-.009.017-.017.028-.023-.017.021-.017.029-.04.056l-.006-.004-.042.065-.024.032-.023.032a.68.68 0 0 0-.063.098c-.018.034-.019.016-.033.033.007.005.001.015-.007.025l-.012.016-.016.021-.003.003c-.016.021-.023.03.001.005-.03.045-.047.054-.06.084.015-.023.02-.019.007.004.005-.016-.003-.011-.019.016l-.01.025-.013.027c.009-.03-.03.044-.036.058.011-.017.012-.019.014-.019l-.01.021a.46.46 0 0 1-.041.068c0-.008.023-.038.018-.042-.016.026-.03.053-.04.082-.01.005-.02.029-.03.054s-.022.053-.034.055l.02-.036a.48.48 0 0 0 .028-.07.18.18 0 0 1 .048-.079c-.008-.005 0-.019.013-.041.009-.014.016-.029.023-.044-.014.008.003-.018.002-.024-.028.045-.014.03-.018.042-.017.023-.023.033-.024.026.012-.022.016-.029.015-.031-.023.042-.037.062-.047.067a.78.78 0 0 1-.042.079l-.063.125c-.006.021.015-.011 0 .025l-.028.048-.011.022-.012.027-.039.096-.068.175c.012.009.011.014.003.037s-.016.017-.019.007v-.001l-.007.025-.015.045-.023.063-.05.138c.001.016 0 .031-.004.046a.8.8 0 0 1-.021.08.5.5 0 0 0-.03.142L0-6.093l.015-.059a.27.27 0 0 1 .025-.061.57.57 0 0 1-.02.1c-.01.035-.019.064-.026.054a.62.62 0 0 1-.026.107c-.003.009-.003.018 0 .027a.16.16 0 0 0-.03.082l-.02.13c0-.011-.006.016-.01.045l-.029.241a1.81 1.81 0 0 0-.008.236c-.004 0-.01-.001-.009.023.01.003.013.01.012.034-.003.03-.002.05-.007.068.008.026.006.042.002.057-.004-.019-.004-.026-.008-.023.005.042.002.052.007.102.005-.029.005-.042.011-.045l.007.055.005.038.006.052.004.044.008.099.008.078.002.022.01.101.013.1.01.07.004.028.007.048.009.047c-.004.014-.017-.068-.014-.032l.017.065A.56.56 0 0 1 0-4.014c.003.016.009.031.018.044.004.006.007.012.01.019a.75.75 0 0 0 .024.096l.014.057a.16.16 0 0 1 .006.045c.011.003.014.054.029.073-.009.004-.001.023.007.033-.013.01.013.061.01.081.017.025.028.054.032.085.019.038.029.068.04.097.011.023.017.049.018.074a.41.41 0 0 1 .046.096l.022.062a.33.33 0 0 1 .012.042c.017 0 .067.118.061.121l.035.051.042.061C.417-2.878.41-2.886.404-2.889l.07.133.076.125.039.065.044.068.022.035.023.037.012.02.037.059c.003-.003.01.003.019.014a.65.65 0 0 0 .089.13l.016.02c.027.033.047.059.038.068.019.025.021.022.022.019.035.033.053.057.072.078l.052.058a.93.93 0 0 1 .078.098l.063.058.076.073c-.02-.014-.027-.02-.029-.019l.009.009.043.042.045.041a.7.7 0 0 1 .078.085c.002-.006.015.002.028.012s.028.02.034.019l-.042-.04-.026-.028c-.018-.017-.033-.037-.044-.06.015.012.029.026.04.041.006.009.014.017.023.022l-.039-.046a.82.82 0 0 0-.061-.057l-.053-.048-.061-.061c0-.012-.013-.027-.027-.041l-.055-.051-.105-.129-.113-.133a1.82 1.82 0 0 1-.104-.136l-.027-.039c-.021-.031-.04-.064-.057-.097l-.025-.03-.054-.074-.023-.033-.015-.024-.048-.079c.02.009.067.11.087.116a1.58 1.58 0 0 1-.119-.214c-.004.002-.009.002-.017-.016C.48-2.822.486-2.82.476-2.84a.37.37 0 0 1-.062-.101C.401-2.965.39-2.993.379-3.017l-.026-.061C.347-3.084.338-3.102.327-3.12s-.023-.044-.028-.068c.008.024.017.038.023.039C.315-3.172.31-3.18.304-3.188s-.018-.025-.023-.04c.014.021.017.028.02.028l-.066-.165-.057-.159c-.012-.01.01.035-.002.025-.001-.006-.005-.015-.008-.024-.006-.015-.011-.03-.008-.03.01.012.012.017.015.018l-.008-.024-.012-.037-.018-.062-.028-.095L.1-3.785.067-3.919.051-3.99.043-4.027.042-4.034.037-4.065a.37.37 0 0 0-.015-.099 1.25 1.25 0 0 1-.024-.122l-.02-.149-.007-.043-.005-.044-.009-.087-.003-.035-.003-.033a.19.19 0 0 0-.001-.021l-.001-.047-.003-.133-.001-.04-.001-.025v-.063l-.004-.119c.004-.001.009.001.008-.023-.009-.034-.006-.057-.001-.079a.2.2 0 0 1 .006-.023c.002-.008.005-.015.008-.022-.006-.022-.008-.034-.01-.046-.001.009-.001.017 0 .026.002.014 0 .029-.004.042a.21.21 0 0 1-.001-.056c.012-.028.012-.029.013-.042l.003-.041c0 .015.002.021.004.027-.001-.014-.001-.028 0-.042s.003-.023.005-.034c.008-.042.011-.072.011-.102l-.01.057c-.003.022-.007.044-.013.066l.004-.044.005-.078c.006.014.007.019.01 0 0-.033.006-.066.015-.098a.51.51 0 0 0 .015-.056.42.42 0 0 0 .007-.056c-.002.023-.015.06-.011.032l.015-.055c-.003-.029-.001-.057.007-.085a.65.65 0 0 0 .018-.092c.003-.012.009-.023.018-.031.002-.049.01-.097.024-.144.005-.002.001.012-.002.027s-.007.026-.004.029a1.97 1.97 0 0 0 .039-.199c.012-.019.014-.021.017-.03-.016.013.004-.054.019-.108l.004-.014c.002.036-.005.059-.009.082.015-.029-.001.034.005.036-.008.023-.011.023-.011.009-.008.041-.021.086-.034.13l-.018.067-.013.064c-.008.023-.011.034-.008.033.012-.03.005.027.003.045-.007.028-.009.047-.016.064l-.008.03c-.002.008-.002.017-.001.026-.007.001-.008-.002-.012.021l.01.001-.014.092-.015.095c.008-.001.013-.008.007.023-.005-.004-.007.02-.01.049-.004.036-.008.078-.019.083a.46.46 0 0 1-.003.053l-.004.042-.002.027c-.004.037-.005.074-.003.111-.008.025-.011.052-.007.078-.002-.018.008-.048.006-.023l-.009.131-.003.071v.072l.009.279c0-.007.001-.014.004-.02l.003.045c-.004.014-.003.038-.005.062a.21.21 0 0 0 .002.051c0-.032.004.017.002.023.008.006.006 0 .015.031-.003-.015-.004-.03-.003-.045a1.45 1.45 0 0 1 .026.182l.019.15c.011.033.002-.039.013-.003 0 .019.004.039.012.057s.011.033.007.042a.13.13 0 0 1-.012-.038c-.007-.027-.014-.054-.015-.023a.56.56 0 0 1 .044.15c.011-.008.023.025.034.066a.57.57 0 0 0 .035.11c.005.048.017.095.035.14a.55.55 0 0 1-.026-.178l.001.003c.003.012.007.027.011.028-.002-.017-.008-.033-.016-.047s-.014-.029-.015-.045c-.005.001-.002.017.001.034s.006.032.002.034a2.13 2.13 0 0 1-.048-.217c.009.015.012.016.015.031.001.022.005.044.013.065.017.011.053.13.062.2.016.027.025.057.027.088-.003-.012.015.023.019.035-.012.004.028.109.02.051.015.043.012.054.008.056a.94.94 0 0 0 .049.086c.006.038.001.019.009.032a.35.35 0 0 1 .038.104c.003.018.009.035.018.051C.37-3.25.366-3.262.371-3.26l.025.068c.007.015.011.031.013.047.017.01.012.036.03.071.01.008.018.017.024.029l.019.034.013.024c.023.041.039.08.03.077.025.027.044.059.055.095.018.005-.031-.068-.031-.083a.53.53 0 0 1 .037.066l.013.024a.43.43 0 0 0 .027.042l.008.033c.002.025.01.034.019.041a.09.09 0 0 1 .016.015c-.006-.012-.016-.027-.014-.03.017.019.031.041.042.064s.019.042.011.045c-.012-.024-.029-.024-.02-.012.016.012.029.026.039.042s.022.027.035.039c-.005-.009-.01-.018-.017-.026-.012-.01-.022-.021-.029-.035.007-.009.009-.009 0-.027a1.04 1.04 0 0 0 .079.117c-.004.003-.019-.023-.02-.012.02.036.019.013.032.03.008.019.025.044.023.051a.86.86 0 0 1 .082.099l.041.057.021.027.031.039c.01.002-.003-.013-.016-.028S.967-2.261.97-2.263l.124.136.066.071.063.06c-.004 0-.015-.01-.02-.011.012.009.023.02.033.03l.016.016.011.012c.015.016.026.028.036.029l.029.034.07.076.1.098.031.03.134.119.03.027.028.024.045.042.053.039.008.006.048.032c.034.02.065.045.091.074a.51.51 0 0 1 .08.05l.039.025.038.02a.36.36 0 0 1 .062.035l.026.017.02.012.091.047.037.019.058.029.059.029.057.031c0-.007-.026-.02-.052-.033s-.062-.031-.048-.036l-.059-.035-.045-.03-.098-.061.018.01a.42.42 0 0 0 .081.032l-.026-.014-.084-.048a.92.92 0 0 1-.098-.071c.042.019.082.043.118.071.009.007.019.012.029.015l-.056-.04-.023-.017-.056-.04-.031-.021c-.008-.011-.02-.019-.013-.02a.91.91 0 0 1 .085.051c-.01-.008-.018-.02 0-.009l.063.04c-.021-.006-.03-.009-.014.003l.033.015.039.017c.022.009.042.022.059.039.022.001.037.008.052.015l-.003.007.039.017.02.007c.028.01.045.015.062.018l.085.047.025.012.023.009c.009.004.019.007.03.008l-.045-.021c-.038-.013-.074-.034-.104-.061l-.023-.011-.075-.039-.095-.055-.045-.026-.041-.025-.068-.042a1.21 1.21 0 0 1-.082-.053l-.029-.021-.046-.033-.028-.018a.31.31 0 0 1-.098-.079c.012.012.026.023.041.032a.26.26 0 0 1 .042.032 3.56 3.56 0 0 0 .716.395 5.77 5.77 0 0 0 .804.259c0-.025.154.023.205.035a.14.14 0 0 1 .061.004c.02.006.037.008.043.003-.024-.01-.097-.017-.101-.028.043-.01.071-.004.095.001l.023.005.045.01c.034.009.069.013.104.013a.63.63 0 0 1-.092-.021 1.04 1.04 0 0 0-.12-.028c.015.002.017-.019.001-.013.005.011-.011.008-.03.004a.12.12 0 0 0-.042-.004c-.035-.007-.043-.015-.048-.025a.38.38 0 0 1 .08.004.49.49 0 0 0 .073.005c0-.011-.034-.021-.068-.023L3.68-.888l-.034-.009-.034-.009-.152-.033-.153-.039-.037-.01-.035-.011-.064-.023c-.02-.008-.01-.011-.037-.018l-.035-.01-.039-.012-.011-.004-.072-.025-.081-.032a.43.43 0 0 1-.066-.039l-.083-.035-.041-.019-.042-.023c-.006.005-.026-.002-.058-.02.025.001.047.01.07.018-.007-.006-.025-.015-.033-.021.024.005.048.015.073.023a.55.55 0 0 1 .07.023c-.017-.009-.014-.015-.044-.026a.4.4 0 0 1-.091-.028c-.024-.012-.051-.018-.077-.018-.02-.012-.028-.029-.01-.026l-.026-.017-.028-.018-.062-.036a.78.78 0 0 1-.116-.073c.004-.009.036.012.05.013-.036-.024-.025-.019-.01-.013s.024.009.025.007a.65.65 0 0 1-.091-.048l-.101-.061c-.211-.158-.412-.33-.602-.513a3.36 3.36 0 0 1-.491-.597l-.062-.088-.03-.044-.028-.044-.093-.153a.85.85 0 0 1-.065-.098l-.02-.035-.03-.068C.75-3.261.719-3.323.693-3.387l-.005-.034c.03.079.054.134.073.144.004.01.006.02.008.03.016.049.001-.034.025.015-.004.006.002.02.008.033s.014.029.003.029l-.011-.028c-.003-.01-.005-.015-.011-.018l.028.06.029.054.047.082a.31.31 0 0 0-.037-.074.53.53 0 0 1-.032-.06l.002-.024a.59.59 0 0 0-.024-.058.19.19 0 0 1-.022-.065c.021.036.038.074.05.114.007.025.017.048.029.071l.074.13c.008.023.029.091.045.078l-.03-.05C.935-2.971.93-2.985.929-2.999.893-3.078.854-3.112.837-3.165c.013.028.03.053.052.073-.018-.039-.024-.023-.044-.067l.016.014L.84-3.18c-.008-.013-.014-.027-.02-.04-.011-.019-.017-.04-.02-.062l.023.044.031.06.051.088.005.009a.55.55 0 0 0-.047-.094c-.015-.024-.025-.051-.03-.079a.57.57 0 0 0 .024.049l.004.007.01.018c.005.01.009.021.013.032.018.015.033.034.044.056l.025.045.011.023.01.02-.02-.045-.021-.043-.047-.078-.045-.075-.043-.079c.002-.005.01.006.017.017s.016.024.011.002L.8-3.351.788-3.376.777-3.402l-.04-.111-.018-.056-.016-.055-.03-.098.003.007.06.147.054.14c.018.03.027.055.037.079l.037.08a1.84 1.84 0 0 0 .079.145l.016.028.069.123a.94.94 0 0 0 .048.081c.001-.002.009.015.02.032l.032.051.068.106c.023.035.05.068.075.099l.037.045c.008.01.017.019.025.028l.004.019.178.195.191.209c.002-.005.011 0 .026.014l.058.056.017.017.042.039.127.107.134.101.069.048.07.047c.173.111.351.212.535.304a.16.16 0 0 0 .022.011l-.022-.011.115.055.058.027.02.008.038.014.115.044.065.022.052.017c.008.005.016.01.023.017s.012.01.019.014c.003-.011-.012-.01-.014-.024a.49.49 0 0 0 .057.025l.026.009.038.012a1.45 1.45 0 0 0 .13.032l-.001.008c.063.004.124.016.184.035h0c.049 0 .09.006.094.016.026.001.052.008.076.021.037.004 0-.013.021-.012a3.61 3.61 0 0 0 .624.05 3.68 3.68 0 0 0 .651-.065c-.332.053-.669.068-1.005.047.001-.004-.017-.004-.032-.005s-.023-.002-.016-.006L4.05-1.02l-.076-.009-.042-.006-.036-.006-.079-.016-.295-.06-.036-.006c-.028-.012-.046-.019-.065-.023a.34.34 0 0 1-.075-.028c-.016.008-.125-.042-.146-.051-.01 0-.011.006-.03 0-.001-.005-.01-.008-.021-.012l-.005-.002c-.013-.004-.025-.01-.036-.018a.23.23 0 0 1-.072-.021l-.048-.017c-.002-.012-.032-.024-.065-.038l-.038-.016-.095-.036-.082-.043-.082-.042-.081-.045-.081-.047-.08-.052-.081-.054-.08-.06c-.012-.005-.019-.009-.025-.014-.017-.021-.038-.036-.057-.052l-.059-.051c.005.014.008.017.009.02a.08.08 0 0 0-.018-.012c-.008-.004-.016-.009-.022-.016.016.006.022.009.021.004-.009-.009-.02-.017-.032-.022s-.023-.012-.032-.022c.006-.003-.005-.013-.02-.026a.2.2 0 0 1-.033-.033c-.021-.006-.023-.006-.024 0-.012-.016-.027-.028-.045-.036l.005-.006-.021-.015-.024-.018c-.017-.015-.033-.03-.033-.039a.39.39 0 0 0 .048.042.24.24 0 0 1 .028.022c.009.008.017.017.025.026.002-.005-.006-.015-.019-.028l-.052-.045c-.033-.025-.061-.055-.084-.089l.112.104.109.094.027.023.018.014.127.101.03.022.035.025c.011-.001.022.006.032.013s.018.013.017.016-.013-.006-.019-.012c.004.008.032.028.058.046l.033.021.029.016c-.016-.01-.049-.04-.018-.027a2.57 2.57 0 0 0 .417.244l.04.02a4.16 4.16 0 0 0 .636.25l-.001.005a1.03 1.03 0 0 1 .11.025.65.65 0 0 0 .125.025l.036.012c.014.006.017.009.019.012l.025.004c.016.003.031.006.033.003-.042-.006-.064-.014-.065-.024l.124.023.026.005.046.009.059.01h0l.039.002.036.003.041.004.042.003.149.006a.58.58 0 0 0-.082-.008c-.052-.003-.104-.005-.109-.022.026.004.053.006.08.004s.062 0 .092.006c.02-.006.029-.005.039-.004a.55.55 0 0 1 .141-.005.59.59 0 0 0 .144-.005.58.58 0 0 0 .087.01c.005-.008-.035-.003-.011-.01-.017-.001-.056.005-.057-.001l.074-.004c.024 0 .047-.004.07-.007l.131-.014.125-.019.018-.003.11-.018c-.004-.014.037-.02.075-.025a.28.28 0 0 0 .053-.01c-.021-.002-.006-.005.018-.01l.007-.001.084-.017.063-.017.005-.001.026-.008.029-.01.092-.035a.2.2 0 0 0-.068.017l-.003.001-.034.012c-.013.004-.026.007-.04.009.001-.007.006-.013.023-.019.008.002.06-.017.051-.023a.46.46 0 0 1-.061.018l-.038.005-.02.003.044-.018a.37.37 0 0 1 .133-.038.18.18 0 0 1 .032-.015l.041-.015.006-.002a3.79 3.79 0 0 0 2.46-4.746l.001.004a.9.9 0 0 0 .044.114c-.008-.035.004-.055.02-.026-.002-.02-.002-.04.002-.059s.004-.041 0-.062a.29.29 0 0 0-.056-.078c-.01-.01-.019-.021-.027-.033l-.033-.055c.003-.028 0-.056-.008-.083a.79.79 0 0 0-.037-.118l-.037-.089-.012-.029-.023-.051-.014-.032c-.015-.01-.028-.039-.038-.069-.012-.009-.014-.013-.016-.016a.11.11 0 0 0-.02-.028c.005.013.012.028.005.03l-.059-.097-.041-.061-.056-.077-.055-.074c-.04-.044-.067-.08-.093-.115l-.019-.025-.02-.023-.04-.045-.006-.007c-.146-.185-.31-.356-.488-.511zm-.753-1.115c.007.013.02.02.033.026l.002-.007-.004-.002c-.009-.003-.017-.008-.024-.013zM1.367-1.63c-.012 0-.03-.025-.041-.039.006-.003.037.033.041.039zM.282-3.131l.049.089-.005-.023a.21.21 0 0 1-.032-.059zm.174-4.141c-.008.012-.015.019-.018.016l-.017.032-.023.037c.001.008.008-.002.015-.016l.018-.032.006.009c.012-.023.024-.043.02-.047zM5.348-1.22c-.002.013.072-.011.082-.019h.001-.001 0l-.037.01a.36.36 0 0 1-.045.009zM2.04-1.278c.017.01.032.019.035.015l-.02-.014c-.026-.021-.039-.028-.053-.032.012.011.025.022.039.031zm-.067-.638c.009.009.018.015.02.01h0c-.007-.011-.041-.041-.045-.036.006.005.017.017.026.026zm-.708-.777c-.009-.002-.037-.056-.04-.043h0a.53.53 0 0 0 .094.11l.017.017.096.126a.59.59 0 0 0 .045.056c.014.015.029.028.045.039l-.026-.029-.019-.022-.041-.053-.088-.103.006-.005-.057-.081-.029-.041-.027-.042-.026-.043-.025-.043c-.017-.028-.032-.056-.045-.086-.017-.016-.028-.037-.032-.06-.009-.004-.028-.045-.036-.045s-.015-.012-.019-.025-.006-.017-.012-.024c.004.01.007.023 0 .011-.008-.025-.02-.05-.034-.073-.009-.012-.015-.026-.019-.041-.011-.018-.01-.005-.011.003-.01-.018-.014-.023-.002-.018l-.013-.028c.02.027.039.055.042.034-.006-.007-.011-.014-.015-.022a.22.22 0 0 0-.005-.022.75.75 0 0 1-.07-.149l-.034-.088C.874-3.51.861-3.536.845-3.56c.005.009.007.019.006.029-.011-.03-.018-.037-.026-.042a.08.08 0 0 1-.03-.038c.002-.025-.005-.047-.01-.069-.009-.027-.009-.04-.004-.029l.001.004c.007.023.015.05.021.049L.79-3.711l-.01-.04c0 .022-.009.016-.016.012-.008-.011-.01-.019-.012-.027L.748-3.79c-.003-.016-.009-.031-.016-.045.013.015.017.034.024.053.01-.033-.024-.088-.031-.071-.008-.03.002-.029-.011-.068-.003-.05-.011-.04-.02-.075-.001-.029-.001-.016-.002-.01-.006-.016-.007-.024-.008-.032-.002-.041-.011-.08-.028-.117.006-.005.005-.025-.003-.059-.012-.002-.014-.009-.016-.016s-.001-.017-.001-.025L.631-4.29.618-4.378.607-4.457.596-4.519c.005-.011.009-.011.004-.03-.014-.046-.021-.095-.019-.143.002.025.003.047.009.047a.6.6 0 0 0-.008-.074c-.005-.005-.01-.01-.013-.019s-.003-.021 0-.03v.006c0 .014.001.027.006.022H.58v-.048l-.005-.06-.004-.039L.57-4.91c-.001-.007-.001-.015-.001-.022l.001-.029.001-.021c-.006.012-.009.024-.009.037s-.003.031-.009.031v-.056l.001-.01.001-.041v-.004l.001-.089v-.091-.046l-.001-.053a.65.65 0 0 1-.017.126l.017-.165c-.006.022-.007.031-.01.029.004-.033-.002-.036-.008-.04-.009.015-.012.032-.011.049.01.009.005.058 0 .098l-.004.046a.6.6 0 0 1 .002-.095.48.48 0 0 0-.023.098c-.004.033-.003.075-.003.113v.018l.003.092.004.091-.003.005c.001.056.002.093.011.093a.4.4 0 0 1 .003-.069.46.46 0 0 0 .007.074l.008.062-.002.071v.044a.44.44 0 0 0 .003.045.49.49 0 0 0 .03.142v.006c0 .012.001.024.003.036l.01.057a.59.59 0 0 0 .027.102.51.51 0 0 0 .028.129.67.67 0 0 1 .027.129l.016.026c-.007.012.02.067.029.093-.003.003-.001.014.001.025l.035.096a.55.55 0 0 0 .04.101c-.01-.03-.013-.044-.012-.058.006.017.014.033.023.048.006.01.013.018.021.027.02.019.036.04.048.064l.025.084c-.019-.044-.016-.057-.035-.101.003.023.009.045.018.066A.19.19 0 0 1 .88-3.4c-.01-.017-.015-.015-.023-.032l-.005-.041c-.008-.006-.014-.013-.019-.021-.005-.021-.003-.025-.011-.04-.004.023-.001.031.001.034.001.018.004.027.008.036l.011.032.01.027.013.023v.021a.85.85 0 0 0 .061.125l.029.049.052.092.054.099.056.103a.77.77 0 0 0 .119.157c.005.009.011.018.017.026zm.348.431a.48.48 0 0 0 .099.09l-.103-.11-.054-.057a.33.33 0 0 0-.045-.04l.051.057.026.031.014.015zM.802-3.5c.01.024.017.038.023.033l-.016-.036zm.014-.08h0 0zm.013-.016c.011.034-.007.012-.013.016-.01-.026.006-.027.013-.016zm-.02-.012h0zm-.012-.026c.004.01.008.025.011.026-.002-.014.005-.016-.002-.04zm-.19-.325c.003.02.011.064.021.066h0l-.006-.022c-.006-.032-.009-.041-.015-.044zm-.506-.005l.009.015-.013-.054c-.003-.012-.007-.02-.01-.021.004.009.006.019.005.03.003.017.006.024.009.031zM.062-4.2l.028.141h0l-.005-.033C.083-4.129.075-4.165.061-4.2zm-.047.079c.004.015.006.03.007.046h0c.012.015-.003-.087-.011-.078 0 .011.001.022.005.032zm.06.019l.001.002H.075zm0 0c-.011-.019-.017-.04-.016-.062.009.02.014.041.016.062zm-.028-.176l.001.003H.047zm0 0l-.001-.027a.19.19 0 0 0-.009-.058c.004.029.009.055.005.055-.003-.016-.004-.057-.01-.054a.24.24 0 0 0 .016.084zm-.055-.359v.001zm0 0l-.004-.048a.2.2 0 0 0-.004-.051c.002.01-.004.087.008.099zm.007-.049v.004zm0 0c0-.021.002-.042.005-.063-.006-.024-.006-.035-.009-.032a.33.33 0 0 0 .003.095zm.498-.09l.001.007H.497zm0 0l-.004-.057a.85.85 0 0 1-.004-.113c-.01.016-.005-.025-.01-.029v.031l.002.027.003.027c.001.007.001.014.001.021l.012.093zm-.515-.126c-.015.028 0 .121.004.144h0a1.02 1.02 0 0 1-.004-.144zm.022.085l.001.001H.004zm-.009-.053c.008.017.011.035.009.053-.009-.016-.012-.035-.009-.053zm-.004-.016l.001.016zm-.003-.059l.003.059c0-.028.006-.011.009.004.002-.015.002-.03.002-.044-.009.001-.008-.023-.007-.05.003-.02.001-.04-.004-.06l-.001.045v.046zm.009-.209v.008h-.001zm0 0l.01-.08.007-.084.003-.057.002-.029.011-.094C.017-5.508.014-5.51.009-5.5l-.004.035c-.004.03-.008.061-.002.064a.14.14 0 0 0 .006-.041c0-.014.002-.032.008-.036l-.002.026-.002.023-.004.047-.003.056-.002.032-.002.041L0-5.214l-.001.06zm.551-.28c-.005.041-.01.081-.001.085.006-.037.015-.099.004-.107l-.003.022zM.546-5.54c-.005.02-.007.042-.003.063.002-.013.003-.026.003-.039l.004-.035zm-.512-.149c-.005.024-.01.049-.002.044.006-.048.013-.06.008-.077a.41.41 0 0 1-.006.033zm.02-.099c-.004.026-.006.052 0 .056l.008-.044zm.025-.227v.018c.006-.035.012-.032.017-.066-.011.012-.008.01-.01.021-.004.001-.007.015-.008.027zm.024-.092l.005.001c.007-.018.01-.037.007-.056-.001.006-.004.015-.007.024-.005.015-.01.031-.006.031zm.065-.295c-.006.015-.01.026-.007.033h0c.002-.008.006-.02.01-.031.009-.024.018-.049.009-.045-.003.015-.007.03-.013.044zm-.037-.092c-.012-.012-.029.029-.045.071h0c.009-.003.019-.022.029-.041a.29.29 0 0 1 .016-.029zm.038.049l.015-.05.005-.025c.002-.008.003-.017.004-.026l-.01.027-.014.035a.09.09 0 0 0-.01.045c.016-.044.013-.026.01-.006zm-.028-.111c-.009.022-.012.045-.005.04h0a.12.12 0 0 0 .013-.033c.003-.012.009-.028.015-.042-.003-.008-.014.013-.023.035zm.093-.049a.23.23 0 0 0-.03.085l.017-.045c.006-.013.01-.026.013-.039zm.01-.091c-.007-.001.006-.041.017-.054a.2.2 0 0 1-.017.054zm.077-.227l-.006.012h0zm0 0c.019-.028.034-.058.044-.09.004.008.014-.01.024-.029.005-.01.01-.019.017-.028-.024.009-.037.036-.048.064l-.037.083zm.004.028c.02-.038.014-.052.002-.036H.326l-.02.048-.016.034c.016-.002.035-.084.035-.047zm.013-.169v.002h0zm.036-.07a.22.22 0 0 1-.036.07.22.22 0 0 1 .036-.07zm.468-.641c-.011.012-.019.025-.026.04h0l.065-.079.006-.007a.92.92 0 0 1 .065-.081l-.01-.008c-.01.016-.021.032-.034.047l-.045.051c-.004.014-.011.027-.021.038zm.22-.272a.43.43 0 0 0-.109.131h0c.011-.01.024-.024.039-.04l.022-.024.039-.045a.5.5 0 0 1 .046-.049c-.003-.016.021-.042.042-.066a.26.26 0 0 0 .03-.036.35.35 0 0 0-.109.131zm-.018.072c-.013.009-.055.057-.049.061h0c.037-.031.051-.051.049-.061zm.024-.022l-.003.009.035-.031.017-.016.022-.021c-.021.007-.026.012-.031.017l-.007.007-.019.02a.14.14 0 0 0-.014.016zm.03-.14c-.009.009-.015.017-.014.019h0c.007-.007.017-.016.027-.024.022-.019.045-.038.046-.051-.021.024-.04.045-.028.023-.007.009-.021.022-.031.033zm.049-.003l.006.005h0c.005-.007.014-.016.021-.024s.017-.021.012-.022zm.244-.286c-.008.008-.018.015-.027.021.022-.019.032-.028.032-.032-.034.024-.02.019-.049.048.011-.005.046-.019.052-.03-.027.022.004-.011-.007-.007zm.137-.104c.017-.002.026-.007.035-.012l-.023.008zm.055-.024c.011-.019.009-.018-.003-.021v-.001c-.037.03-.014.027.003.022zm.354-.189a1.6 1.6 0 0 0-.147.116l.054-.039.03-.02.045-.033.023-.017.023-.016a.62.62 0 0 0 .123-.093l-.091.063-.061.04zm-.063.023l.005.006c.024-.017.055-.037.052-.044a.24.24 0 0 0-.034.021l-.023.017zm.06-.052l.005.006.038-.025c-.001-.007-.024.008-.043.018zm.028-.058h0 0zm.01-.006c.03-.01.042-.017.042-.02-.014.01-.018.008-.022.007s-.006-.003-.02.014zm.205-.064h0 0zm0 0c.028-.022.067-.034.074-.051-.008.006-.02.013-.032.02-.022.013-.043.026-.042.031zm1.494-.504c-.015-.005-.03-.006-.045-.005h-.001c.014.008.012.011-.021.022-.001-.008-.066.004-.066.012.008 0 .015-.001.023-.003s.021-.004.023-.002l-.193.042-.023.005-.068.018-.043.01-.052.012-.02.009-.02.007-.03.01-.076.025-.016.005-.089.031a.24.24 0 0 0-.059.032l.032-.004.023-.006c.008-.002.022-.007.033-.012-.006-.005 0-.012.027-.02.029-.001.066-.015.103-.025.023-.013.007-.007-.01-.001s-.029.01-.029.007c.031-.013.063-.023.096-.03l.054-.012c.011-.009.025-.011.039-.016s.024-.006.036-.005l.068-.02.047-.013.111-.029c.015.004.027.001.04-.002s.03-.007.026-.011l-.032.006-.024.002c.044-.008.087-.018.129-.032zm-.529.178c-.012.003-.024.008-.034.015v.001c.043-.014.068-.013.083-.03l-.021.007h-.002zm.218-.041c-.016.003-.027.005-.024.011l.001.001c.022-.003.043-.01.062-.021a.21.21 0 0 1-.038.009zm.527-.032a2.35 2.35 0 0 0-.423.085l.001.001.163-.03.131-.021a1.83 1.83 0 0 0 .226-.045.41.41 0 0 0-.034.004c-.014.003-.028.005-.042.003-.029-.011-.043-.009-.056-.003.023-.004.061 0 .034.006zm-.432-.07l-.014.006c.042-.012.035 0 .077-.013-.031-.003-.047.002-.063.008zm.239-.038c.008.007-.004.013-.006.02v.001l.078-.014c.029-.003.057-.01.085-.02l-.081.005-.076.009zm.27-.07l.056-.007v-.002l.015-.002.076-.009.163-.015a2.78 2.78 0 0 1 .341.003c.014-.004.018-.005.023-.005l.052.005c.014.008-.014.007-.043.006l-.031-.001v.001l-.142.007-.062.003-.022.001-.105.005-.065.007-.061.009c-.03.001-.061-.001-.091-.006-.009.014-.02.014-.031.013s-.023-.001-.034.004c-.033.002-.013-.002-.013-.009a1.27 1.27 0 0 1-.132.023c.029.002.046-.001.057-.002a.6.6 0 0 1-.144.021c.017-.018.022-.022-.015-.016a.3.3 0 0 1 .048-.011l.05-.005.011-.001c.031 0 .061-.005.091-.014l-.082.008-.073.01a.53.53 0 0 1-.125.012l.085-.02.042-.007.042-.004.176-.02v.007zm-.19.119c-.019-.001-.041.008-.041.015h0c.021-.005.046-.009.041-.016zm.063-.018h.001zm-.009.006c-.023 0-.036.006-.035.01s.016.005.039.005l.057-.009.118-.017.045-.008.035-.007c-.034-.011-.064-.005-.092 0l-.024.004-.143.021zm.109-.072c-.006.007-.035.012-.042.019h0a.35.35 0 0 0 .074-.012c.023-.006.046-.01.069-.01-.003-.005-.028-.002-.052 0-.016.003-.033.004-.049.002zm.404.093c.001-.002.016-.001.03.001s.022.003.032 0a1.14 1.14 0 0 0-.116-.004l-.104.008-.013.001-.113.013-.03.004-.076.01c.002.009.027.004.057-.001l.007-.001.038-.007c.012-.002.025-.002.038 0-.027.008-.103.004-.095.021.015-.003.03-.005.045-.006l.105-.011.054-.004c.006-.004-.008-.006-.019-.007.016-.001.029-.011.04-.003.032.009.062.005.093.004a.59.59 0 0 0 .101-.013.57.57 0 0 1-.097 0c0-.004.03-.002.032-.006zm-.312-.079l.013.002c.025-.006.035-.008.032-.011-.018-.003-.038-.006-.046.002.027-.003.004.005.001.008zm.214-.028l-.159.014v.001a1.01 1.01 0 0 0 .125-.006.4.4 0 0 1 .098 0c-.024-.01-.044-.01-.064-.009zm.048.205l.005.003c.018-.004.035-.005.053-.003.028.001.056.001.062-.007a.9.9 0 0 1-.04-.001.22.22 0 0 0-.087.005zm.163-.002l-.053.002v.001c-.002.006.003.009.021.009.024-.004.03-.004.031-.006zm.046-.212l-.161.008h0c.036-.001.052-.002.045.003a1.48 1.48 0 0 1 .153-.002.71.71 0 0 0 .167-.008c-.031.001-.064 0-.098-.001H4.5zm.26.239c-.014 0-.027-.002-.041-.004h0l.196.016.035.004c.012-.008.017-.008.021-.008.015.005.03.008.045.007s.026.002.039.005c.015-.007.041-.009.065-.016l-.063-.013c-.03.004-.034.007-.053.004v-.01c-.037-.004-.04.004-.074.002-.027-.014-.073-.017-.118-.02l-.07-.003h-.071-.133-.075c-.011 0-.021 0-.031-.001.016.01.042.012.068.014.02.003.032.009.03.018.043.001.027-.006.02-.013a.25.25 0 0 0 .055.002c.027-.002.055 0 .082.004a.35.35 0 0 1-.047 0c-.021-.001-.038-.002-.037.003l.023.011c.024-.004.074-.012.074.004a.22.22 0 0 0-.073.004l.064.004.02.001.037.002.131.006c-.025-.002-.025-.008 0-.008.016.007.018.01.031.01-.035-.016-.059-.016-.084-.014-.02-.008-.042-.012-.064-.011zm-.023-.243c.005-.004.032-.002.023-.011v-.001l-.067.004c-.025 0-.054 0-.083-.001l-.089-.002-.044.002-.04.004c.036.005.072.007.108.007.02.001.039.001.059-.001.056-.003.071-.004.134 0zm.004-.026c-.013-.001-.025-.001-.027.002h.001c.017.002.047.011.055.003l-.029-.005zm.097.023c-.038-.004-.063-.004-.055.006h0c.049.004.079.011.088.023-.018-.005-.037-.005-.055-.001.015.002.03.006.044.011l.076-.002.042.002.048.007c-.01-.006-.021-.011-.033-.014a.31.31 0 0 0-.05-.009l-.034-.003-.093-.011c.023-.004.026-.005.022-.008zm.3.038h-.001v-.001zm0 0c.023.012.038.013.054.013-.028-.013-.041-.014-.053-.013zm.804.249c-.017-.006-.035-.013-.038-.01h-.001v.001h0c.014.008.061.025.063.019a.35.35 0 0 1-.025-.009zm.062-.031a.14.14 0 0 0-.045-.013h-.002l.001.001h0c.014.004.029.01.042.017s.028.013.032.006a.48.48 0 0 1-.029-.01zm.391.184c-.027-.015-.081-.033-.053-.015h0 .001 0c.034.015.056.026.053.016zm.515.604c-.024-.017-.047-.032-.047-.023h-.001l.025.02.026.018zm.34.716l-.017-.011c.008.008.016.016.011.017.009.009.019.017.03.023-.007-.011-.016-.02-.025-.029zm.342-.17c.002-.012.059.053.042.047a.18.18 0 0 1-.042-.047zm.262.368l-.013-.016c.009.032.009.029.01.024zm-5.684.226c0-.014.029-.028.047-.045-.002.01-.029.024-.047.045z"/><path d="M3.199-9.443c-.031.01.073-.029.084-.038.013.001.026 0 .038-.003s.029-.005.042-.011c.012.004-.003.007-.027.011l-.084.019c.005.004.031-.004.047-.005-.017.012-.051.007-.101.026z"/><path d="M3.563-9.508c-.021.004-.066.019-.057.008.066-.012.074-.029.04-.028.007-.004.025-.008.021-.012.044 0-.001.02-.003.032zm.185-.064c-.008.009.039.009.016.016-.039.005-.005-.01-.038-.012.019-.002.021-.006.022-.009l.045-.006.039-.006a.92.92 0 0 1 .097-.014c-.018.008-.037.011-.057.01.027.007-.04.013-.076.026l-.003-.013zm.454-.17c-.018.015.038.006.06.009-.028.011-.145 0-.06-.009zm.534.148c-.025 0-.161-.004-.035-.006.011.003.023.005.035.006z"/><path d="M4.872-9.595c-.045.001-.091 0-.136-.004.027-.005-.014-.01-.023-.016.031-.002.062.002.091.013.034-.004.057-.003.079-.004.022.005-.045.001-.011.012z"/><path d="M4.861-9.575c.019-.003.038-.005.058-.005h.092l.205.017c.041.003.047.006.033.011.027.002.053.007.079.016.014.001.023 0 .023-.004l.089.017.084.019.155.034.139.035.126.034c-.036-.003.036.017.018.023.011.002.022.005.033.008-.003-.006-.042-.016-.03-.021.052.023.076.027.094.048-.02.001-.056-.031-.056-.013l-.118-.039-.109-.032-.104-.03-.103-.025-.105-.024-.055-.011-.057-.01-.123-.023-.139-.019c-.03-.006-.023.002-.035.004-.007-.005-.054-.006-.057-.012-.017 0-.036 0-.035.007-.034-.004-.068-.005-.102-.004zm.853.369c.002-.007.05.011.065.01l-.03-.014c.068 0 .174.05.272.079a.65.65 0 0 0 .223.092c.033.012.018.016.037.025a.62.62 0 0 1 .074.019c.032.021.045.045.079.067.025.005.048.016.068.032-.045-.016.004.013.045.032a1.17 1.17 0 0 1-.142-.054c.005-.002.019.004.023.002a.58.58 0 0 0-.126-.066c-.021-.02-.047-.03-.071-.042s-.045-.017-.07-.017a.63.63 0 0 0-.07-.032c.014-.006.03.012.061.023.007.002.015.002.023 0l-.102-.04-.058-.023-.061-.021-.124-.042-.118-.031z"/><path d="M5.798-9.084c-.018-.013-.077-.026-.09-.039l.122.041c.024.006-.027-.002-.032-.002zm-.273 1.262c.015-.001.021.005.029.008s.023.01.035.012c.003.02-.006.007-.031-.001-.015-.014-.024-.017-.033-.02zm.649-1.354l-.159-.053c.011-.001.023.001.033.006.018.002.045.013.072.023l.078.023c-.014-.003-.092-.024-.024.002zm.146.054c-.017-.015.041.021.027.023-.013-.008-.026-.015-.04-.021-.003-.005.043.013.013-.002zm.072-.033l.013-.002c.01.018.124.055.107.068-.023-.01-.018-.013-.017-.017l-.103-.049zm.467.023c.03.017.029.023.059.04a.41.41 0 0 1-.085-.039c-.017 0-.041-.014-.066-.025.008.009.018.016.029.021-.017-.002-.034-.016-.056-.018-.023-.012.006-.01.016-.007a.27.27 0 0 0-.049-.034c.008 0 .025.01.024.003.041.023.084.042.129.058z"/><path d="M6.527-8.685c-.004-.008-.019-.016-.014-.019a.67.67 0 0 1 .06.045c.019.016-.046-.035-.046-.027zm.109-.01a.12.12 0 0 1 .06.023c-.021-.004-.007.002.015.013l.037.018c.01.006.02.012.029.02s.029.005.014-.004l.108.074c.023.015.045.033.065.049l.049.043c.028 0 .059.049.084.045.015.012 0 .011.011.023a1.15 1.15 0 0 1 .116.093c.012.01-.023.008.019.028.007.019-.049-.031-.047-.044a.75.75 0 0 1-.089-.076c-.015-.011-.023-.011-.023-.004a.54.54 0 0 0-.095-.068c.016-.005-.014-.027-.052-.053l-.06-.039c-.017-.01-.032-.023-.045-.038a.64.64 0 0 1-.087-.047l-.108-.057z"/><path d="M6.918-8.745c.021.007.041.018.059.031.018-.004.039.009.061.02l.052.028c-.016-.001.03.034.079.072l.037.029.032.029c.019.018.032.033.032.04a.22.22 0 0 1 .036.025.36.36 0 0 0 .07.073c.029.049.12.132.134.168-.02-.025-.074-.061-.059-.048l-.124-.107-.143-.12c-.099-.076-.196-.146-.268-.17.015.011.032.02.05.027.011.005.022.011.033.017a.42.42 0 0 1 .04.028c-.019-.01-.039-.018-.059-.025a.47.47 0 0 1-.072-.031c-.005.005.061.036.042.036-.017-.006-.03-.023-.064-.041.024.005.004-.012-.027-.033l-.049-.032-.038-.021c.002-.005.027.012.023.002.027.019.054.037.083.052a.26.26 0 0 0-.072-.057l-.102-.058c.037.018.075.033.114.045s.081.033.12.052c.036.026.086.058.098.051.021.016.012.019.041.038s.004-.014.068.036c.013.007.02.007.023.004-.018-.027-.12-.08-.094-.079-.019-.015-.015-.005-.03-.015-.007.003.042.028.023.026-.02-.007-.045-.029-.032-.032-.046-.029-.06-.022-.116-.06z"/><path d="M6.737-8.614c.004-.004.021.017.045.028-.023-.005-.006-.002-.045-.028zm.369.245l.105.089c-.038-.026-.073-.056-.105-.089zm.206.022c-.02.013-.099-.079-.142-.117a1.56 1.56 0 0 1 .142.117zm-.243.597c.028.025.014.028.032.049.011.016-.047-.048-.032-.049zm-.69-1.537c.004.008-.036-.014-.036-.002-.011-.014-.077-.036-.07-.047-.059-.018-.102-.026-.097-.001a1.42 1.42 0 0 1-.184-.059l-.081-.036-.061-.03c-.015-.021-.009-.034.012-.039a.23.23 0 0 1 .102.011.96.96 0 0 1 .101.035l.049.021.048.023a.9.9 0 0 0 .172.073l.09.044.099.052c-.047-.001-.114-.037-.115-.023-.011-.005-.021-.012-.03-.021z"/></g></g><path d="M4.319-7.269c.243 0 .431.026.563.077s.245.106.34.164l.121.065c.031.014.061.022.09.022.066 0 .111-.091.136-.272h.142l-.015.281-.012.43-.003.699h-.142a2.06 2.06 0 0 0-.148-.625c-.082-.202-.199-.368-.349-.498s-.335-.195-.553-.195c-.198 0-.361.056-.489.167s-.192.266-.192.464c0 .165.041.306.124.424s.203.232.362.343l.578.402a5.94 5.94 0 0 1 .532.383 1.62 1.62 0 0 1 .377.433c.095.161.142.352.142.575 0 .272-.071.497-.213.674s-.329.31-.56.399-.484.133-.761.133c-.256 0-.46-.025-.612-.074a2.54 2.54 0 0 1-.383-.155c-.091-.058-.161-.087-.21-.087-.066 0-.111.091-.136.272h-.142l.015-.346.006-.516.003-.807h.142c.016.272.063.527.139.764s.194.428.352.572.37.216.634.216a.86.86 0 0 0 .544-.173c.148-.115.223-.289.223-.519 0-.256-.087-.467-.26-.634a4.52 4.52 0 0 0-.668-.516l-.544-.383c-.169-.128-.304-.274-.405-.439s-.152-.361-.152-.587c0-.26.065-.473.195-.64a1.15 1.15 0 0 1 .513-.371c.212-.08.438-.121.677-.121" fill="na" fill-rule="nonzero"/></mask></defs></svg>